<svg xmlns="http://www.w3.org/2000/svg">
    <symbol id="translate" viewBox="0 0 25 23" fill="">    
        <path d="M15.29 18.4529C15.1623 18.4516 15.0369 18.421 14.9257 18.3638C14.8145 18.3066 14.7211 18.2247 14.6542 18.1259C14.5873 18.027 14.549 17.9143 14.5431 17.7984C14.5371 17.6825 14.5636 17.5671 14.62 17.463L16.76 13.5851C16.8238 13.4735 16.9199 13.3799 17.038 13.3142C17.156 13.2486 17.2916 13.2135 17.43 13.2128C17.5697 13.2135 17.7064 13.2495 17.8248 13.3169C17.9432 13.3843 18.0385 13.4803 18.1 13.5942L20.244 17.4721C20.3249 17.6337 20.3335 17.8176 20.2679 17.9848C20.2024 18.1521 20.0679 18.2897 19.8928 18.3687C19.7176 18.4476 19.5156 18.4617 19.3293 18.4079C19.1429 18.3542 18.9869 18.2368 18.894 18.0805L17.43 15.4196L15.97 18.0805C15.9039 18.1923 15.8058 18.2858 15.6862 18.3513C15.5666 18.4168 15.4297 18.4519 15.29 18.4529Z" fill=""/>
        <path d="M19.1799 17.7628H15.6599C15.4614 17.7616 15.2714 17.6894 15.131 17.5619C14.9907 17.4345 14.9112 17.2619 14.9099 17.0816C14.9112 16.9014 14.9907 16.7288 15.131 16.6013C15.2714 16.4738 15.4614 16.4017 15.6599 16.4005H19.1799C19.3788 16.4005 19.5696 16.4723 19.7102 16.6C19.8509 16.7277 19.9299 16.901 19.9299 17.0816C19.9299 17.2623 19.8509 17.4355 19.7102 17.5633C19.5696 17.691 19.3788 17.7628 19.1799 17.7628Z" fill=""/>
        <path d="M17.4201 21.477C16.267 21.477 15.1399 21.1665 14.1811 20.5847C13.2224 20.0029 12.4751 19.176 12.0339 18.2086C11.5926 17.2411 11.4772 16.1765 11.7021 15.1495C11.9271 14.1224 12.4823 13.179 13.2977 12.4386C14.113 11.6981 15.1518 11.1938 16.2827 10.9896C17.4136 10.7853 18.5858 10.8901 19.6511 11.2908C20.7164 11.6916 21.627 12.3702 22.2676 13.2409C22.9082 14.1116 23.2501 15.1352 23.2501 16.1824C23.2485 17.5862 22.6338 18.932 21.5408 19.9247C20.4478 20.9173 18.9658 21.4756 17.4201 21.477ZM17.4201 12.2591C16.5637 12.2591 15.7265 12.4898 15.0145 12.9219C14.3024 13.354 13.7474 13.9681 13.4197 14.6866C13.092 15.4052 13.0062 16.1959 13.1733 16.9587C13.3404 17.7215 13.7528 18.4221 14.3583 18.9721C14.9639 19.522 15.7354 19.8966 16.5753 20.0483C17.4153 20.2 18.2859 20.1221 19.0771 19.8245C19.8683 19.5269 20.5446 19.0229 21.0204 18.3762C21.4961 17.7295 21.7501 16.9692 21.7501 16.1915C21.7496 15.1487 21.2932 14.1488 20.4813 13.4114C19.6694 12.6741 18.5683 12.2596 17.4201 12.2591Z" fill=""/>
        <path d="M5.36006 12.3501C4.40392 12.3991 3.46539 12.1019 2.75006 11.5237C2.39812 11.175 2.12798 10.7649 1.95607 10.3183C1.78415 9.87183 1.71406 9.39822 1.75006 8.92632V5.36632C1.69082 4.9037 1.74758 4.4349 1.91609 3.99502C2.0846 3.55515 2.3605 3.15559 2.72313 2.82626C3.08576 2.49693 3.52573 2.24637 4.01009 2.09333C4.49445 1.94029 5.01065 1.88875 5.52006 1.94255H9.44006C9.95979 1.90851 10.4817 1.97154 10.9736 2.12773C11.4655 2.28392 11.9169 2.52997 12.3001 2.85071C12.6328 3.19508 12.885 3.59724 13.0414 4.03278C13.1978 4.46833 13.2552 4.92819 13.2101 5.38449V8.92632C13.2583 9.38978 13.2006 9.8573 13.0405 10.2996C12.8805 10.7418 12.6216 11.1493 12.2801 11.4964C11.8935 11.8062 11.4413 12.041 10.9512 12.1862C10.4611 12.3314 9.94341 12.3841 9.43006 12.341H5.53006C5.47374 12.3481 5.4169 12.3511 5.36006 12.3501ZM5.52006 3.31387C3.91006 3.31387 3.25006 3.91326 3.25006 5.3754V8.9354C3.21871 9.22386 3.25026 9.5151 3.34292 9.79247C3.43558 10.0698 3.58752 10.3279 3.79006 10.5519C4.27146 10.8948 4.8823 11.0514 5.49006 10.9879H9.43006C9.74355 11.0242 10.0619 11.0028 10.3661 10.9248C10.6702 10.8467 10.9539 10.7137 11.2001 10.5338C11.3943 10.3119 11.5377 10.057 11.6219 9.78409C11.706 9.51115 11.7292 9.22568 11.6901 8.94449V5.36632C11.7277 5.09007 11.7047 4.80976 11.6223 4.54164C11.5399 4.27352 11.3998 4.0229 11.2101 3.80428C10.9634 3.62034 10.6792 3.48235 10.3738 3.39821C10.0684 3.31406 9.74768 3.2854 9.43006 3.31387H5.52006Z" fill=""/>
        <path d="M9.49994 6.81024H5.43994C5.24143 6.80905 5.05143 6.73691 4.91106 6.60943C4.77069 6.48195 4.69125 6.3094 4.68994 6.12912C4.69125 5.94884 4.77069 5.77629 4.91106 5.64881C5.05143 5.52133 5.24143 5.44919 5.43994 5.448H9.49994C9.69885 5.448 9.88962 5.51976 10.0303 5.64749C10.1709 5.77523 10.2499 5.94848 10.2499 6.12912C10.2499 6.30977 10.1709 6.48301 10.0303 6.61075C9.88962 6.73848 9.69885 6.81024 9.49994 6.81024Z" fill=""/>
        <path d="M7.47998 6.81024C7.28147 6.80905 7.09147 6.73691 6.9511 6.60943C6.81073 6.48195 6.73129 6.3094 6.72998 6.12912V5.51157C6.73129 5.33129 6.81073 5.15873 6.9511 5.03126C7.09147 4.90378 7.28147 4.83163 7.47998 4.83044C7.67849 4.83163 7.86849 4.90378 8.00886 5.03126C8.14923 5.15873 8.22867 5.33129 8.22998 5.51157V6.12912C8.22867 6.3094 8.14923 6.48195 8.00886 6.60943C7.86849 6.73691 7.67849 6.80905 7.47998 6.81024Z" fill=""/>
        <path d="M5.43994 9.67997C5.24103 9.67997 5.05026 9.6082 4.90961 9.48047C4.76896 9.35273 4.68994 9.17949 4.68994 8.99884C4.68994 8.8182 4.76896 8.64495 4.90961 8.51722C5.05026 8.38948 5.24103 8.31772 5.43994 8.31772C5.74989 8.31066 6.05527 8.24819 6.33863 8.1339C6.62199 8.01962 6.87777 7.85574 7.09137 7.65164C7.30496 7.44754 7.47218 7.20722 7.58347 6.94441C7.69475 6.6816 7.74792 6.40145 7.73994 6.11997C7.73994 5.93932 7.81896 5.76607 7.95961 5.63834C8.10026 5.5106 8.29103 5.43884 8.48994 5.43884C8.68885 5.43884 8.87962 5.5106 9.02027 5.63834C9.16092 5.76607 9.23994 5.93932 9.23994 6.11997C9.25491 7.04944 8.86319 7.94633 8.15075 8.61377C7.43831 9.28121 6.46338 9.66467 5.43994 9.67997Z" fill=""/>
        <path d="M9.50992 9.68008C9.02864 9.66957 8.55668 9.55741 8.13142 9.35248C7.70617 9.14756 7.33931 8.85551 7.05992 8.49947C6.94057 8.35495 6.88932 8.1733 6.91745 7.99447C6.94558 7.81564 7.05079 7.65428 7.20992 7.5459C7.36905 7.43751 7.56907 7.39097 7.76598 7.41652C7.96289 7.44206 8.14057 7.5376 8.25992 7.68212C8.39733 7.87166 8.58227 8.02892 8.79955 8.14101C9.01683 8.25309 9.26028 8.3168 9.50992 8.32692C9.70842 8.32811 9.89843 8.40025 10.0388 8.52773C10.1792 8.65521 10.2586 8.82776 10.2599 9.00804C10.2581 9.18733 10.1781 9.35867 10.0376 9.4846C9.89706 9.61052 9.70734 9.68081 9.50992 9.68008Z" fill=""/>
        <path d="M9.5 21.4771C7.44563 21.474 5.47638 20.7314 4.02372 19.4122C2.57106 18.0929 1.75344 16.3045 1.75 14.4388C1.75131 14.2585 1.83075 14.086 1.97112 13.9585C2.11149 13.831 2.30149 13.7589 2.5 13.7577C2.69851 13.7589 2.88851 13.831 3.02888 13.9585C3.16925 14.086 3.24869 14.2585 3.25 14.4388C3.25119 15.7201 3.72884 16.9634 4.60552 17.9673C5.4822 18.9711 6.70652 19.6767 8.08 19.9695L7.81 19.5609C7.75944 19.4839 7.72606 19.3987 7.71176 19.3101C7.69747 19.2214 7.70254 19.1311 7.72668 19.0442C7.75082 18.9574 7.79357 18.8757 7.85248 18.8038C7.91138 18.732 7.9853 18.6714 8.07 18.6254C8.1547 18.5795 8.24853 18.5492 8.34614 18.5362C8.44374 18.5232 8.5432 18.5279 8.63885 18.5498C8.73449 18.5717 8.82444 18.6105 8.90357 18.664C8.98269 18.7175 9.04944 18.7846 9.1 18.8616L10.15 20.4509C10.2178 20.5534 10.2545 20.6705 10.2563 20.7902C10.258 20.9098 10.2248 21.0278 10.16 21.132C10.0916 21.2359 9.99499 21.3221 9.87946 21.3825C9.76393 21.4429 9.6333 21.4755 9.5 21.4771Z" fill=""/>
        <path d="M22.4999 9.67094C22.3014 9.66975 22.1114 9.5976 21.971 9.47013C21.8306 9.34265 21.7512 9.17009 21.7499 8.98981C21.7487 7.70855 21.2711 6.46521 20.3944 5.46135C19.5177 4.45748 18.2934 3.75194 16.9199 3.4591L17.1899 3.86777C17.2405 3.9447 17.2738 4.02991 17.2881 4.11855C17.3024 4.20719 17.2974 4.29752 17.2732 4.38438C17.2491 4.47124 17.2063 4.55293 17.1474 4.62479C17.0885 4.69665 17.0146 4.75727 16.9299 4.80318C16.8452 4.8491 16.7514 4.87941 16.6538 4.8924C16.5562 4.90538 16.4567 4.90078 16.361 4.87885C16.2654 4.85692 16.1754 4.8181 16.0963 4.76461C16.0172 4.71111 15.9505 4.64398 15.8999 4.56706L14.8499 2.97777C14.7827 2.87486 14.7467 2.7576 14.7456 2.63795C14.7446 2.51829 14.7785 2.40052 14.8439 2.29665C14.9073 2.1916 15.0009 2.10407 15.1146 2.04332C15.2283 1.98257 15.358 1.95086 15.4899 1.95155C17.545 1.95371 19.5152 2.69582 20.9688 4.01518C22.4223 5.33453 23.2405 7.12348 23.2439 8.98981C23.2451 9.0791 23.2267 9.16771 23.1898 9.25048C23.1529 9.33326 23.0983 9.40853 23.029 9.47193C22.9598 9.53532 22.8773 9.58556 22.7865 9.61973C22.6956 9.6539 22.5982 9.67131 22.4999 9.67094Z" fill=""/>    
    </symbol>
    <symbol id="shoppingCart" viewBox="0 0 24 21" fill="none">    
        <path d="M9.74801 19.1048C9.74801 19.2794 9.69101 19.45 9.58422 19.5952C9.47742 19.7403 9.32563 19.8535 9.14804 19.9203C8.97045 19.9871 8.77503 20.0046 8.5865 19.9705C8.39797 19.9364 8.22479 19.8524 8.08886 19.7289C7.95294 19.6055 7.86038 19.4482 7.82287 19.277C7.78537 19.1058 7.80462 18.9283 7.87818 18.767C7.95174 18.6058 8.07632 18.4679 8.23614 18.3709C8.39597 18.2739 8.58388 18.2222 8.77611 18.2222C9.03387 18.2222 9.28108 18.3152 9.46335 18.4807C9.64562 18.6462 9.74801 18.8707 9.74801 19.1048Z" stroke="" stroke-width="1.58679" stroke-linecap="round" stroke-linejoin="round"/>
        <path d="M20.4404 19.1048C20.4404 19.2794 20.3834 19.45 20.2766 19.5952C20.1698 19.7403 20.018 19.8535 19.8404 19.9203C19.6628 19.9871 19.4674 20.0046 19.2789 19.9705C19.0903 19.9364 18.9172 19.8524 18.7812 19.7289C18.6453 19.6055 18.5528 19.4482 18.5153 19.277C18.4778 19.1058 18.497 18.9283 18.5706 18.767C18.6441 18.6058 18.7687 18.4679 18.9285 18.3709C19.0884 18.2739 19.2763 18.2222 19.4685 18.2222C19.7263 18.2222 19.9735 18.3152 20.1557 18.4807C20.338 18.6462 20.4404 18.8707 20.4404 19.1048Z" stroke="" stroke-width="1.58679" stroke-linecap="round" stroke-linejoin="round"/>
        <path d="M1 1.44897H4.88763L7.49313 13.2693C7.58188 13.6757 7.82526 14.0409 8.18063 14.3008C8.53601 14.5607 8.98074 14.6988 9.43694 14.6909H18.8855C19.3417 14.6988 19.7864 14.5607 20.1418 14.3008C20.4971 14.0409 20.7405 13.6757 20.8293 13.2693L22.3843 5.86294H5.86033" stroke="" stroke-width="1.58679" stroke-linecap="round" stroke-linejoin="round"/>
    </symbol>
    <symbol id="user" viewBox="0 0 19 20" fill="none">    
        <path d="M9.35727 13C6.1872 13 3.36807 14.5306 1.57327 16.906C1.18698 17.4172 0.993832 17.6728 1.00015 18.0183C1.00503 18.2852 1.17263 18.6219 1.38264 18.7867C1.65446 19 2.03114 19 2.7845 19H15.93C16.6834 19 17.0601 19 17.3319 18.7867C17.5419 18.6219 17.7095 18.2852 17.7144 18.0183C17.7207 17.6728 17.5276 17.4172 17.1413 16.906C15.3465 14.5306 12.5273 13 9.35727 13Z" stroke="" stroke-width="1.5" stroke-linecap="round" stroke-linejoin="round"/>
        <path d="M9.35727 10C11.8426 10 13.8573 7.98528 13.8573 5.5C13.8573 3.01472 11.8426 1 9.35727 1C6.87199 1 4.85727 3.01472 4.85727 5.5C4.85727 7.98528 6.87199 10 9.35727 10Z" stroke="" stroke-width="1.5" stroke-linecap="round" stroke-linejoin="round"/>
    </symbol>
    <symbol id="calling" viewBox="0 0 21 21" fill="none">    
        <path d="M1.49006 3.37521C1.80606 2.85021 3.55006 0.945209 4.79306 1.00121C5.16524 1.05791 5.50664 1.24079 5.76006 1.51921C6.71668 2.5268 7.54528 3.64861 8.22706 4.85921C8.47206 6.02721 7.07806 6.70121 7.50006 7.87921C7.99663 9.15342 8.75251 10.3106 9.71977 11.2773C10.687 12.2441 11.8446 12.9993 13.1191 13.4952C14.2961 13.9222 14.9701 12.5302 16.1381 12.7722C17.3488 13.4541 18.4707 14.2831 19.4781 15.2402C19.7563 15.4936 19.9389 15.8351 19.9951 16.2072C20.0411 17.5162 18.0181 19.2842 17.6241 19.5072C16.6941 20.1732 15.4801 20.1612 14.0001 19.4732C9.87406 17.7582 3.27406 11.2832 1.52406 7.00121C0.854058 5.52621 0.809058 4.30121 1.49006 3.37521Z" stroke="#212529" stroke-width="1.5" stroke-miterlimit="10" stroke-linecap="round" stroke-linejoin="round"/>
        <path d="M13.0649 1.25122C14.8622 1.45088 16.5381 2.2557 17.8176 3.53353C19.097 4.81136 19.904 6.48625 20.1059 8.28322" stroke="#212529" stroke-width="1.5" stroke-miterlimit="10" stroke-linecap="round" stroke-linejoin="round"/>
        <path d="M13.0649 4.79419C13.9306 4.96249 14.7263 5.38558 15.3499 6.00919C15.9735 6.6328 16.3966 7.42848 16.5649 8.29419" stroke="#212529" stroke-width="1.5" stroke-miterlimit="10" stroke-linecap="round" stroke-linejoin="round"/>
    </symbol>
    <symbol id="message" viewBox="0 0 24 24" fill="none">    
        <path d="M17.2681 9.06104L13.0021 12.495C12.6105 12.8026 12.127 12.9697 11.6291 12.9697C11.1312 12.9697 10.6477 12.8026 10.2561 12.495L5.9541 9.06104" stroke="#212529" stroke-width="1.5" stroke-miterlimit="10" stroke-linecap="round" stroke-linejoin="round"/>
        <path d="M6.888 3.5H16.316C16.9901 3.50738 17.6556 3.6522 18.2719 3.92558C18.8881 4.19897 19.4421 4.59519 19.9 5.09C20.3587 5.58573 20.7126 6.16896 20.9404 6.80474C21.1683 7.44053 21.2654 8.11577 21.226 8.79V15.318C21.2654 15.9922 21.1683 16.6675 20.9404 17.3033C20.7126 17.939 20.3587 18.5223 19.9 19.018C19.4426 19.5123 18.8892 19.9083 18.2737 20.1816C17.6582 20.455 16.9934 20.6001 16.32 20.608H6.888C3.968 20.616 2 18.241 2 15.322V8.794C2 5.875 3.968 3.5 6.888 3.5Z" stroke="#212529" stroke-width="1.5" stroke-miterlimit="10" stroke-linecap="round" stroke-linejoin="round"/>  
    </symbol>
    <symbol id="truck" viewBox="0 0 24 24" fill="none">    
        <path d="M16 16V3H1V16H16ZM16 16H23V11L20 8H16V16ZM8 18.5C8 19.8807 6.88071 21 5.5 21C4.11929 21 3 19.8807 3 18.5C3 17.1193 4.11929 16 5.5 16C6.88071 16 8 17.1193 8 18.5ZM21 18.5C21 19.8807 19.8807 21 18.5 21C17.1193 21 16 19.8807 16 18.5C16 17.1193 17.1193 16 18.5 16C19.8807 16 21 17.1193 21 18.5Z" stroke="#212529" stroke-linecap="round" stroke-linejoin="round"/>
    </symbol>
    <symbol id="trash" viewBox="0 0 24 24" fill="none">    
        <path d="M3 6.23043H5M5 6.23043H21M5 6.23043V19.692C5 20.202 5.21071 20.6911 5.58579 21.0518C5.96086 21.4124 6.46957 21.615 7 21.615H17C17.5304 21.615 18.0391 21.4124 18.4142 21.0518C18.7893 20.6911 19 20.202 19 19.692V6.23043H5ZM8 6.23043V4.30735C8 3.79732 8.21071 3.30818 8.58579 2.94753C8.96086 2.58689 9.46957 2.38428 10 2.38428H14C14.5304 2.38428 15.0391 2.58689 15.4142 2.94753C15.7893 3.30818 16 3.79732 16 4.30735V6.23043" stroke="#212529" stroke-width="2" stroke-linecap="round" stroke-linejoin="round"/>
    </symbol>





    <symbol id="facebook" viewBox="0 0 32 32" fill="none">    
        <circle cx="16" cy="16" r="14" fill="url(#paint0_linear_363_2102)"/>
        <path d="M21.2137 20.2816L21.8356 16.3301H17.9452V13.767C17.9452 12.6857 18.4877 11.6311 20.2302 11.6311H22V8.26699C22 8.26699 20.3945 8 18.8603 8C15.6548 8 13.5617 9.89294 13.5617 13.3184V16.3301H10V20.2816H13.5617V29.8345C14.2767 29.944 15.0082 30 15.7534 30C16.4986 30 17.2302 29.944 17.9452 29.8345V20.2816H21.2137Z" fill="white"/>
        <defs>
        <linearGradient id="paint0_linear_363_2102" x1="16" y1="2" x2="16" y2="29.917" gradientUnits="userSpaceOnUse">
        <stop stop-color="#18ACFE"/>
        <stop offset="1" stop-color="#0163E0"/>
        </linearGradient>
        </defs>
    </symbol>
     <symbol id="instagram" viewBox="0 0 32 32" fill="none">    
        <rect x="2" y="2" width="28" height="28" rx="6" fill="url(#paint0_radial_363_2100)"/>
        <rect x="2" y="2" width="28" height="28" rx="6" fill="url(#paint1_radial_363_2100)"/>
        <rect x="2" y="2" width="28" height="28" rx="6" fill="url(#paint2_radial_363_2100)"/>
        <path d="M23 10.5C23 11.3284 22.3284 12 21.5 12C20.6716 12 20 11.3284 20 10.5C20 9.67157 20.6716 9 21.5 9C22.3284 9 23 9.67157 23 10.5Z" fill="white"/>
        <path fill-rule="evenodd" clip-rule="evenodd" d="M16 21C18.7614 21 21 18.7614 21 16C21 13.2386 18.7614 11 16 11C13.2386 11 11 13.2386 11 16C11 18.7614 13.2386 21 16 21ZM16 19C17.6569 19 19 17.6569 19 16C19 14.3431 17.6569 13 16 13C14.3431 13 13 14.3431 13 16C13 17.6569 14.3431 19 16 19Z" fill="white"/>
        <path fill-rule="evenodd" clip-rule="evenodd" d="M6 15.6C6 12.2397 6 10.5595 6.65396 9.27606C7.2292 8.14708 8.14708 7.2292 9.27606 6.65396C10.5595 6 12.2397 6 15.6 6H16.4C19.7603 6 21.4405 6 22.7239 6.65396C23.8529 7.2292 24.7708 8.14708 25.346 9.27606C26 10.5595 26 12.2397 26 15.6V16.4C26 19.7603 26 21.4405 25.346 22.7239C24.7708 23.8529 23.8529 24.7708 22.7239 25.346C21.4405 26 19.7603 26 16.4 26H15.6C12.2397 26 10.5595 26 9.27606 25.346C8.14708 24.7708 7.2292 23.8529 6.65396 22.7239C6 21.4405 6 19.7603 6 16.4V15.6ZM15.6 8H16.4C18.1132 8 19.2777 8.00156 20.1779 8.0751C21.0548 8.14674 21.5032 8.27659 21.816 8.43597C22.5686 8.81947 23.1805 9.43139 23.564 10.184C23.7234 10.4968 23.8533 10.9452 23.9249 11.8221C23.9984 12.7223 24 13.8868 24 15.6V16.4C24 18.1132 23.9984 19.2777 23.9249 20.1779C23.8533 21.0548 23.7234 21.5032 23.564 21.816C23.1805 22.5686 22.5686 23.1805 21.816 23.564C21.5032 23.7234 21.0548 23.8533 20.1779 23.9249C19.2777 23.9984 18.1132 24 16.4 24H15.6C13.8868 24 12.7223 23.9984 11.8221 23.9249C10.9452 23.8533 10.4968 23.7234 10.184 23.564C9.43139 23.1805 8.81947 22.5686 8.43597 21.816C8.27659 21.5032 8.14674 21.0548 8.0751 20.1779C8.00156 19.2777 8 18.1132 8 16.4V15.6C8 13.8868 8.00156 12.7223 8.0751 11.8221C8.14674 10.9452 8.27659 10.4968 8.43597 10.184C8.81947 9.43139 9.43139 8.81947 10.184 8.43597C10.4968 8.27659 10.9452 8.14674 11.8221 8.0751C12.7223 8.00156 13.8868 8 15.6 8Z" fill="white"/>
        <defs>
        <radialGradient id="paint0_radial_363_2100" cx="0" cy="0" r="1" gradientUnits="userSpaceOnUse" gradientTransform="translate(12 23) rotate(-55.3758) scale(25.5196)">
        <stop stop-color="#B13589"/>
        <stop offset="0.79309" stop-color="#C62F94"/>
        <stop offset="1" stop-color="#8A3AC8"/>
        </radialGradient>
        <radialGradient id="paint1_radial_363_2100" cx="0" cy="0" r="1" gradientUnits="userSpaceOnUse" gradientTransform="translate(11 31) rotate(-65.1363) scale(22.5942)">
        <stop stop-color="#E0E8B7"/>
        <stop offset="0.444662" stop-color="#FB8A2E"/>
        <stop offset="0.71474" stop-color="#E2425C"/>
        <stop offset="1" stop-color="#E2425C" stop-opacity="0"/>
        </radialGradient>
        <radialGradient id="paint2_radial_363_2100" cx="0" cy="0" r="1" gradientUnits="userSpaceOnUse" gradientTransform="translate(0.500002 3) rotate(-8.1301) scale(38.8909 8.31836)">
        <stop offset="0.156701" stop-color="#406ADC"/>
        <stop offset="0.467799" stop-color="#6A45BE"/>
        <stop offset="1" stop-color="#6A45BE" stop-opacity="0"/>
        </radialGradient>
        </defs>
    </symbol>
    <symbol id="snapshat" viewBox="0 0 32 32" fill="none">    
        <circle cx="16" cy="16" r="14" fill="#FFFA37"/>
        <path fill-rule="evenodd" clip-rule="evenodd" d="M21.0255 8.18551C20.0601 6.96879 18.4673 6 16.0118 6C13.9091 6.02071 9.70378 7.18445 9.70378 11.6738C9.70378 12.3294 9.75568 13.2075 9.80103 13.8541C9.74758 13.8386 9.68188 13.8095 9.57775 13.7596L9.56328 13.7527C9.37915 13.6643 9.09918 13.5298 8.7098 13.5298C8.31645 13.5298 7.93611 13.6839 7.65375 13.9124C7.37309 14.1394 7.13333 14.4885 7.13333 14.9105C7.13333 15.4384 7.43041 15.7888 7.77778 16.0135C8.08632 16.2131 8.47538 16.3406 8.78337 16.4415L8.81382 16.4514C9.14349 16.5596 9.3851 16.642 9.55169 16.7458C9.68136 16.8267 9.70104 16.8778 9.70348 16.9264C9.70179 16.9333 9.69782 16.9482 9.68919 16.9724C9.67141 17.0224 9.64184 17.0899 9.59862 17.1743C9.5124 17.3427 9.38667 17.5498 9.23711 17.7706C8.93539 18.2161 8.56717 18.673 8.29212 18.9376C8.02082 19.1986 7.57562 19.5229 7.11016 19.7811C6.87933 19.9091 6.6536 20.0152 6.45167 20.0881C6.24322 20.1633 6.09047 20.192 5.99608 20.192C5.92136 20.192 5.85669 20.2073 5.82847 20.2144C5.7888 20.2243 5.74774 20.2374 5.70713 20.2527C5.62657 20.2829 5.53056 20.3283 5.43546 20.3923C5.25377 20.5146 5 20.7612 5 21.1502C5 21.3532 5.04766 21.5251 5.13005 21.6742C5.20217 21.8047 5.29487 21.9038 5.34823 21.9608L5.35615 21.9692L5.37091 21.9851C5.66435 22.3008 6.15008 22.5205 6.62162 22.6712C7.02679 22.8007 7.4798 22.8972 7.92122 22.9551C7.92745 22.9836 7.93397 23.0142 7.9411 23.0478L7.9434 23.0587C7.97119 23.1897 8.008 23.3633 8.06221 23.5234C8.11336 23.6744 8.20599 23.8977 8.39564 24.0568C8.63717 24.2593 8.95308 24.2798 9.1592 24.279C9.38047 24.2781 9.63881 24.2469 9.88394 24.2174L9.90481 24.2149C10.2497 24.1733 10.6106 24.1304 10.9843 24.1304C11.6663 24.1304 12.1035 24.4153 12.7894 24.8837L12.794 24.8869C13.0316 25.0492 13.2976 25.2308 13.6 25.4095C14.6122 26.0076 15.4346 26.0025 15.9007 25.9995C15.9315 25.9993 15.9606 25.9992 15.9882 25.9992C16.0158 25.9992 16.0452 25.9993 16.0761 25.9995C16.543 26.0025 17.3873 26.0079 18.4 25.4095C18.7024 25.2308 18.9684 25.0492 19.2059 24.8869L19.2106 24.8837C19.8965 24.4153 20.3337 24.1304 21.0157 24.1304C21.3894 24.1304 21.7503 24.1733 22.0952 24.2149L22.1161 24.2174C22.3612 24.2469 22.6195 24.2781 22.8408 24.279C23.0469 24.2798 23.3628 24.2593 23.6044 24.0568C23.794 23.8977 23.8866 23.6744 23.9378 23.5234C23.992 23.3634 24.0288 23.1898 24.0566 23.0587L24.0589 23.0478C24.066 23.0142 24.0725 22.9836 24.0788 22.9551C24.5202 22.8972 24.9732 22.8007 25.3784 22.6712C25.8499 22.5205 26.3357 22.3007 26.6291 21.985L26.6439 21.9692L26.6517 21.9608C26.7051 21.9038 26.7978 21.8047 26.8699 21.6742C26.9523 21.5251 27 21.3532 27 21.1502C27 20.7612 26.7462 20.5146 26.5645 20.3923C26.4694 20.3283 26.3734 20.2829 26.2929 20.2527C26.2523 20.2374 26.2112 20.2243 26.1715 20.2144C26.1433 20.2073 26.0786 20.192 26.0039 20.192C25.9095 20.192 25.7568 20.1633 25.5483 20.0881C25.3464 20.0152 25.1207 19.9091 24.8898 19.7811C24.4244 19.5229 23.9792 19.1986 23.7079 18.9376C23.4328 18.673 23.0646 18.2161 22.7629 17.7706C22.6133 17.5498 22.4876 17.3427 22.4014 17.1743C22.3582 17.0899 22.3286 17.0224 22.3108 16.9724C22.3022 16.9482 22.2982 16.9333 22.2965 16.9264C22.299 16.8778 22.3186 16.8267 22.4483 16.7458C22.6149 16.642 22.8565 16.5596 23.1862 16.4514L23.2166 16.4415C23.5246 16.3406 23.9137 16.2131 24.2222 16.0135C24.5696 15.7888 24.8667 15.4384 24.8667 14.9105C24.8667 14.4885 24.6269 14.1394 24.3462 13.9124C24.0639 13.6839 23.6835 13.5298 23.2902 13.5298C22.9008 13.5298 22.6209 13.6643 22.4367 13.7527L22.4223 13.7596C22.3181 13.8095 22.2524 13.8386 22.199 13.8541C22.2443 13.2075 22.2962 12.3294 22.2962 11.6738C22.2962 10.7837 21.9726 9.37904 21.0255 8.18551ZM11.7832 8.77274C10.9822 9.77549 10.7077 10.9662 10.7077 11.6738C10.7077 12.3299 10.7633 13.2413 10.8102 13.8949C10.8258 14.1119 10.7813 14.365 10.5917 14.5658C10.3998 14.7691 10.1388 14.8351 9.90561 14.8351C9.56889 14.8351 9.3128 14.7119 9.14898 14.6331L9.12996 14.624C8.94718 14.5363 8.85108 14.4956 8.7098 14.4956C8.58128 14.4956 8.42437 14.5508 8.29994 14.6515C8.17382 14.7535 8.13725 14.8534 8.13725 14.9105C8.13725 15.0269 8.18018 15.1101 8.33794 15.2121C8.52427 15.3326 8.78976 15.4232 9.13779 15.5374L9.16809 15.5473C9.45712 15.642 9.81511 15.7593 10.0976 15.9354C10.4147 16.133 10.7077 16.4507 10.7077 16.9401C10.7077 17.0684 10.6722 17.1919 10.6389 17.2854C10.6028 17.3869 10.554 17.4941 10.4992 17.601C10.3896 17.8152 10.2413 18.0571 10.0783 18.2978C9.75483 18.7754 9.3437 19.2918 9.002 19.6205C8.65655 19.9528 8.13703 20.3263 7.61159 20.6178C7.34696 20.7645 7.07068 20.8961 6.80428 20.9923C6.56581 21.0783 6.3088 21.1457 6.06224 21.1563C6.0561 21.1589 6.04931 21.162 6.0422 21.1655C6.03083 21.1713 6.0202 21.1774 6.01092 21.1837L6.00618 21.187C6.00711 21.1936 6.00817 21.1985 6.00906 21.202C6.01103 21.2097 6.01337 21.2152 6.01652 21.2209C6.02619 21.2384 6.04143 21.2579 6.1031 21.324L6.11928 21.3413C6.23038 21.4609 6.50416 21.616 6.93815 21.7547C7.35148 21.8868 7.84023 21.9822 8.30201 22.026C8.53305 22.0479 8.66621 22.1923 8.72257 22.2701C8.78059 22.3501 8.81377 22.4347 8.83316 22.4908C8.87067 22.5994 8.899 22.7332 8.92135 22.8387L8.92474 22.8547C8.95525 22.9985 8.98194 23.1215 9.01675 23.2242C9.02905 23.2606 9.0404 23.2882 9.05017 23.3085C9.0722 23.3111 9.10599 23.3135 9.15493 23.3133C9.36726 23.3124 9.57984 23.2808 9.79022 23.2554C10.1268 23.2148 10.5433 23.1646 10.9843 23.1646C12.0071 23.1646 12.682 23.6258 13.334 24.0713L13.3706 24.0963C13.6118 24.261 13.8536 24.4259 14.1255 24.5866C14.8917 25.0394 15.4747 25.0361 15.9007 25.0337C15.9306 25.0336 15.9598 25.0334 15.9882 25.0334C16.0164 25.0334 16.0454 25.0336 16.0753 25.0337C16.5059 25.036 17.1085 25.0393 17.8745 24.5866C18.1464 24.4259 18.3882 24.261 18.6294 24.0963L18.666 24.0713C19.318 23.6258 19.9929 23.1646 21.0157 23.1646C21.4567 23.1646 21.8732 23.2148 22.2098 23.2554L22.2199 23.2566C22.4921 23.2894 22.6913 23.3126 22.8451 23.3133C22.894 23.3135 22.9278 23.3111 22.9498 23.3085C22.9596 23.2882 22.9709 23.2606 22.9833 23.2242C23.0181 23.1215 23.0447 22.9985 23.0753 22.8547L23.0787 22.8387C23.101 22.7331 23.1293 22.5994 23.1668 22.4908C23.1862 22.4347 23.2194 22.3501 23.2774 22.2701C23.3338 22.1923 23.467 22.0479 23.698 22.026C24.1598 21.9822 24.6485 21.8868 25.0618 21.7547C25.4958 21.616 25.7696 21.4609 25.8807 21.3414L25.8969 21.324C25.9585 21.2579 25.9738 21.2384 25.9835 21.2209C25.9866 21.2152 25.989 21.2097 25.9909 21.202C25.9918 21.1985 25.9929 21.1936 25.9938 21.187L25.9891 21.1837C25.9798 21.1774 25.9692 21.1713 25.9578 21.1655C25.9507 21.1619 25.9439 21.1589 25.9378 21.1563C25.6912 21.1457 25.4342 21.0783 25.1957 20.9923C24.9293 20.8961 24.653 20.7645 24.3884 20.6178C23.863 20.3263 23.3435 19.9528 22.998 19.6205C22.6563 19.2918 22.2452 18.7754 21.9217 18.2978C21.7587 18.0571 21.6104 17.8152 21.5008 17.601C21.446 17.4941 21.3972 17.3869 21.3611 17.2854C21.3278 17.1919 21.2923 17.0684 21.2923 16.9401C21.2923 16.4507 21.5853 16.133 21.9024 15.9354C22.1849 15.7593 22.5429 15.642 22.8319 15.5473L22.8622 15.5374C23.2102 15.4232 23.4757 15.3326 23.6621 15.2121C23.8198 15.1101 23.8627 15.0269 23.8627 14.9105C23.8627 14.8534 23.8262 14.7535 23.7001 14.6515C23.5756 14.5508 23.4187 14.4956 23.2902 14.4956C23.1489 14.4956 23.0528 14.5363 22.87 14.624L22.851 14.6331C22.6872 14.7119 22.4311 14.8351 22.0944 14.8351C21.8612 14.8351 21.6002 14.7691 21.4083 14.5658C21.2187 14.365 21.1742 14.1119 21.1898 13.8949C21.2367 13.2413 21.2923 12.3299 21.2923 11.6738C21.2923 10.9643 21.0227 9.77352 20.2275 8.77149C19.4508 7.79264 18.1523 6.96575 16.0118 6.96575C13.871 6.96575 12.566 7.79288 11.7832 8.77274Z" fill="black"/>
        <path fill-rule="evenodd" clip-rule="evenodd" d="M11.7833 8.77281C10.9822 9.77556 10.7078 10.9662 10.7078 11.6738C10.7078 12.3299 10.7633 13.2414 10.8102 13.895C10.8258 14.112 10.7813 14.365 10.5917 14.5659C10.3999 14.7692 10.1388 14.8352 9.90565 14.8352C9.56894 14.8352 9.31285 14.712 9.14903 14.6332L9.13001 14.624C8.94723 14.5364 8.85113 14.4956 8.70985 14.4956C8.58133 14.4956 8.42442 14.5509 8.29999 14.6515C8.17387 14.7536 8.1373 14.8535 8.1373 14.9106C8.1373 15.027 8.18023 15.1101 8.33799 15.2122C8.52432 15.3327 8.78981 15.4233 9.13784 15.5374L9.16814 15.5474C9.45717 15.6421 9.81516 15.7593 10.0977 15.9354C10.4148 16.1331 10.7078 16.4508 10.7078 16.9402C10.7078 17.0685 10.6723 17.192 10.639 17.2855C10.6028 17.387 10.554 17.4942 10.4993 17.6011C10.3896 17.8153 10.2413 18.0572 10.0783 18.2979C9.75488 18.7754 9.34375 19.2918 9.00205 19.6206C8.6566 19.9529 8.13708 20.3264 7.61164 20.6178C7.34701 20.7646 7.07073 20.8962 6.80433 20.9923C6.56586 21.0784 6.30884 21.1458 6.06229 21.1563C6.05615 21.1589 6.04936 21.162 6.04224 21.1656C6.03088 21.1713 6.02025 21.1775 6.01097 21.1837L6.00623 21.187C6.00716 21.1937 6.00822 21.1986 6.00911 21.2021C6.01108 21.2098 6.01342 21.2153 6.01657 21.221C6.02624 21.2385 6.04148 21.258 6.10315 21.3241L6.11933 21.3414C6.23043 21.4609 6.50421 21.616 6.9382 21.7548C7.35152 21.8869 7.84028 21.9823 8.30206 22.0261C8.5331 22.048 8.66626 22.1924 8.72262 22.2701C8.78064 22.3502 8.81382 22.4348 8.83321 22.4909C8.87072 22.5995 8.89905 22.7332 8.9214 22.8387L8.92479 22.8548C8.9553 22.9986 8.98199 23.1215 9.0168 23.2243C9.0291 23.2606 9.04045 23.2883 9.05022 23.3086C9.07225 23.3111 9.10604 23.3135 9.15498 23.3133C9.36731 23.3125 9.57989 23.2808 9.79027 23.2555C10.1268 23.2149 10.5434 23.1647 10.9844 23.1647C12.0071 23.1647 12.682 23.6259 13.334 24.0713L13.3706 24.0963C13.6119 24.2611 13.8536 24.426 14.1255 24.5867C14.8918 25.0395 15.4747 25.0362 15.9007 25.0338C15.9307 25.0336 15.9599 25.0335 15.9883 25.0335C16.0165 25.0335 16.0455 25.0336 16.0753 25.0338C16.506 25.0361 17.1085 25.0394 17.8746 24.5867C18.1465 24.426 18.3882 24.2611 18.6295 24.0963L18.6661 24.0713C19.318 23.6259 19.993 23.1647 21.0157 23.1647C21.4567 23.1647 21.8733 23.2149 22.2098 23.2555L22.22 23.2567C22.4922 23.2895 22.6913 23.3127 22.8451 23.3133C22.8941 23.3135 22.9278 23.3111 22.9499 23.3086C22.9596 23.2883 22.971 23.2606 22.9833 23.2243C23.0181 23.1215 23.0448 22.9986 23.0753 22.8548L23.0787 22.8387C23.1011 22.7332 23.1294 22.5995 23.1669 22.4909C23.1863 22.4347 23.2195 22.3502 23.2775 22.2701C23.3338 22.1923 23.467 22.048 23.698 22.0261C24.1598 21.9823 24.6486 21.8869 25.0619 21.7548C25.4959 21.616 25.7697 21.461 25.8808 21.3414L25.8969 21.3241C25.9586 21.258 25.9739 21.2385 25.9835 21.221C25.9867 21.2153 25.989 21.2098 25.991 21.2021C25.9919 21.1986 25.9929 21.1937 25.9939 21.187L25.9891 21.1837C25.9799 21.1775 25.9692 21.1713 25.9579 21.1656C25.9507 21.162 25.944 21.1589 25.9378 21.1563C25.6913 21.1458 25.4342 21.0784 25.1958 20.9923C24.9294 20.8962 24.6531 20.7646 24.3885 20.6178C23.863 20.3264 23.3435 19.9529 22.998 19.6206C22.6563 19.2918 22.2452 18.7754 21.9218 18.2979C21.7588 18.0572 21.6105 17.8153 21.5008 17.6011C21.4461 17.4942 21.3973 17.387 21.3611 17.2855C21.3278 17.192 21.2923 17.0685 21.2923 16.9402C21.2923 16.4508 21.5853 16.1331 21.9024 15.9354C22.1849 15.7593 22.5429 15.6421 22.832 15.5474L22.8623 15.5374C23.2103 15.4233 23.4758 15.3327 23.6621 15.2122C23.8199 15.1101 23.8628 15.027 23.8628 14.9106C23.8628 14.8535 23.8262 14.7536 23.7001 14.6515C23.5757 14.5509 23.4188 14.4956 23.2902 14.4956C23.149 14.4956 23.0529 14.5364 22.8701 14.624L22.8511 14.6332C22.6872 14.712 22.4312 14.8352 22.0944 14.8352C21.8613 14.8352 21.6002 14.7692 21.4084 14.5659C21.2188 14.365 21.1743 14.112 21.1899 13.895C21.2368 13.2414 21.2923 12.3299 21.2923 11.6738C21.2923 10.9644 21.0227 9.7736 20.2276 8.77157C19.4509 7.79271 18.1524 6.96582 16.0118 6.96582C13.871 6.96582 12.5661 7.79296 11.7833 8.77281Z" fill="white"/>
    </symbol>
    <symbol id="twitter" viewBox="0 0 32 32" fill="none">    
        <path d="M11.7887 28C8.55374 28 5.53817 27.0591 3 25.4356C5.15499 25.5751 8.95807 25.2411 11.3236 22.9848C7.76508 22.8215 6.16026 20.0923 5.95094 18.926C6.25329 19.0426 7.6953 19.1826 8.50934 18.856C4.4159 17.8296 3.78793 14.2373 3.92748 13.141C4.695 13.6775 5.99745 13.8641 6.50913 13.8174C2.69479 11.0882 4.06703 6.98276 4.74151 6.09635C7.47882 9.88867 11.5812 12.0186 16.6564 12.137C16.5607 11.7174 16.5102 11.2804 16.5102 10.8316C16.5102 7.61092 19.1134 5 22.3247 5C24.0025 5 25.5144 5.71275 26.5757 6.85284C27.6969 6.59011 29.3843 5.97507 30.2092 5.4432C29.7934 6.93611 28.4989 8.18149 27.7159 8.64308C27.7095 8.62731 27.7224 8.65878 27.7159 8.64308C28.4037 8.53904 30.2648 8.18137 31 7.68256C30.6364 8.52125 29.264 9.91573 28.1377 10.6964C28.3473 19.9381 21.2765 28 11.7887 28Z" fill="#47ACDF"/>
    </symbol>
     <symbol id="whatsapp" viewBox="0 0 32 32" fill="none">    
        <path fill-rule="evenodd" clip-rule="evenodd" d="M16 31C23.732 31 30 24.732 30 17C30 9.26801 23.732 3 16 3C8.26801 3 2 9.26801 2 17C2 19.5109 2.661 21.8674 3.81847 23.905L2 31L9.31486 29.3038C11.3014 30.3854 13.5789 31 16 31ZM16 28.8462C22.5425 28.8462 27.8462 23.5425 27.8462 17C27.8462 10.4576 22.5425 5.15385 16 5.15385C9.45755 5.15385 4.15385 10.4576 4.15385 17C4.15385 19.5261 4.9445 21.8675 6.29184 23.7902L5.23077 27.7692L9.27993 26.7569C11.1894 28.0746 13.5046 28.8462 16 28.8462Z" fill="#BFC8D0"/>
        <path d="M28 16C28 22.6274 22.6274 28 16 28C13.4722 28 11.1269 27.2184 9.19266 25.8837L5.09091 26.9091L6.16576 22.8784C4.80092 20.9307 4 18.5589 4 16C4 9.37258 9.37258 4 16 4C22.6274 4 28 9.37258 28 16Z" fill="url(#paint0_linear_363_2155)"/>
        <path fill-rule="evenodd" clip-rule="evenodd" d="M16 30C23.732 30 30 23.732 30 16C30 8.26801 23.732 2 16 2C8.26801 2 2 8.26801 2 16C2 18.5109 2.661 20.8674 3.81847 22.905L2 30L9.31486 28.3038C11.3014 29.3854 13.5789 30 16 30ZM16 27.8462C22.5425 27.8462 27.8462 22.5425 27.8462 16C27.8462 9.45755 22.5425 4.15385 16 4.15385C9.45755 4.15385 4.15385 9.45755 4.15385 16C4.15385 18.5261 4.9445 20.8675 6.29184 22.7902L5.23077 26.7692L9.27993 25.7569C11.1894 27.0746 13.5046 27.8462 16 27.8462Z" fill="white"/>
        <path d="M12.5 9.49989C12.1672 8.83131 11.6565 8.8905 11.1407 8.8905C10.2188 8.8905 8.78125 9.99478 8.78125 12.05C8.78125 13.7343 9.52345 15.578 12.0244 18.3361C14.438 20.9979 17.6094 22.3748 20.2422 22.3279C22.875 22.2811 23.4167 20.0154 23.4167 19.2503C23.4167 18.9112 23.2062 18.742 23.0613 18.696C22.1641 18.2654 20.5093 17.4631 20.1328 17.3124C19.7563 17.1617 19.5597 17.3656 19.4375 17.4765C19.0961 17.8018 18.4193 18.7608 18.1875 18.9765C17.9558 19.1922 17.6103 19.083 17.4665 19.0015C16.9374 18.7892 15.5029 18.1511 14.3595 17.0426C12.9453 15.6718 12.8623 15.2001 12.5959 14.7803C12.3828 14.4444 12.5392 14.2384 12.6172 14.1483C12.9219 13.7968 13.3426 13.254 13.5313 12.9843C13.7199 12.7145 13.5702 12.305 13.4803 12.05C13.0938 10.953 12.7663 10.0347 12.5 9.49989Z" fill="white"/>
        <defs>
        <linearGradient id="paint0_linear_363_2155" x1="26.5" y1="7" x2="4" y2="28" gradientUnits="userSpaceOnUse">
        <stop stop-color="#5BD066"/>
        <stop offset="1" stop-color="#27B43E"/>
        </linearGradient>
        </defs>
    </symbol>
    <symbol id="tiktok" viewBox="0 0 24 24" fill="none">    
        <path d="M6.33809 14.8444C6.4553 13.8739 6.8533 13.3306 7.60332 12.7736C8.67646 12.0193 10.017 12.446 10.017 12.446V9.91462C10.3429 9.90629 10.6689 9.92561 10.9912 9.97235V13.23C10.9912 13.23 9.65112 12.8033 8.57798 13.558C7.82837 14.1146 7.42955 14.6583 7.31275 15.6287C7.30909 16.1557 7.40798 16.8445 7.86337 17.4401C7.75077 17.3824 7.63601 17.3166 7.51908 17.2427C6.51593 16.5691 6.33321 15.5585 6.33809 14.8444ZM16.5262 5.23411C15.788 4.42517 15.5089 3.60842 15.4079 3.03467H16.3366C16.3366 3.03467 16.1514 4.53906 17.5009 6.01849L17.5196 6.03838C17.1559 5.8096 16.8224 5.53956 16.5262 5.23411ZM20.9999 7.52756V10.7197C20.9999 10.7197 19.8149 10.6733 18.9379 10.4501C17.7133 10.1381 16.9263 9.65953 16.9263 9.65953C16.9263 9.65953 16.3826 9.31824 16.3386 9.29445V15.8862C16.3386 16.2532 16.2381 17.1698 15.9317 17.9343C15.5316 18.9343 14.9143 19.5908 14.8007 19.725C14.8007 19.725 14.0499 20.6123 12.7253 21.2098C11.5313 21.7489 10.4829 21.7352 10.1696 21.7489C10.1696 21.7489 8.35741 21.8207 6.72674 20.7609C6.37411 20.5273 6.04496 20.2628 5.74353 19.9707L5.75167 19.9765C7.38275 21.0363 9.19452 20.9645 9.19452 20.9645C9.50828 20.9509 10.5566 20.9645 11.7502 20.4255C13.0736 19.8279 13.8257 18.9406 13.8257 18.9406C13.938 18.8064 14.5582 18.15 14.9566 17.1495C15.2622 16.3854 15.3636 15.4684 15.3636 15.1014V8.51047C15.4075 8.53465 15.9508 8.87594 15.9508 8.87594C15.9508 8.87594 16.7383 9.35491 17.9628 9.66655C18.8402 9.88966 20.0248 9.93607 20.0248 9.93607V7.43473C20.4302 7.52561 20.7757 7.55018 20.9999 7.52756Z" fill="#EE1D52"/>
        <path d="M20.0253 7.43473V9.93529C20.0253 9.93529 18.8406 9.88888 17.9632 9.66577C16.7387 9.35374 15.9512 8.87516 15.9512 8.87516C15.9512 8.87516 15.408 8.53387 15.364 8.50969V15.1022C15.364 15.4692 15.2635 16.3862 14.957 17.1503C14.557 18.1507 13.9397 18.8072 13.8261 18.9414C13.8261 18.9414 13.0749 19.8287 11.7506 20.4263C10.557 20.9653 9.50871 20.9516 9.19495 20.9653C9.19495 20.9653 7.38318 21.0371 5.7521 19.9773L5.74396 19.9715C5.57175 19.8047 5.40965 19.6286 5.25846 19.4441C4.73796 18.8095 4.41891 18.0591 4.33874 17.845C4.3386 17.844 4.3386 17.8431 4.33874 17.8422C4.20973 17.4701 3.9387 16.5765 3.97573 15.711C4.04125 14.184 4.57844 13.2467 4.72046 13.0119C5.09661 12.3716 5.58584 11.7987 6.16638 11.3188C6.67867 10.9046 7.25933 10.5751 7.88455 10.3437C8.56043 10.072 9.28418 9.92637 10.017 9.91462V12.446C10.017 12.446 8.67649 12.0208 7.60375 12.7736C6.85373 13.3306 6.45573 13.8739 6.33852 14.8444C6.33364 15.5585 6.51636 16.5691 7.5187 17.2431C7.63563 17.3172 7.75039 17.383 7.86298 17.4405C8.03809 17.6681 8.25122 17.8664 8.49376 18.0275C9.4729 18.6473 10.2933 18.6906 11.3425 18.288C12.042 18.0189 12.5686 17.4124 12.8128 16.7404C12.9662 16.3207 12.9642 15.8983 12.9642 15.4614V3.03467H15.4059C15.5068 3.60842 15.786 4.42517 16.5242 5.23411C16.8204 5.53956 17.1539 5.8096 17.5176 6.03838C17.625 6.14954 18.1744 6.69911 18.8797 7.0365C19.2444 7.21089 19.6288 7.34452 20.0253 7.43473Z" fill="black"/>
        <path d="M3.36694 17.0679V17.0698L3.42753 17.234C3.42057 17.2149 3.39806 17.1568 3.36694 17.0679Z" fill="#69C9D0"/>
        <path d="M7.88461 10.344C7.25939 10.5754 6.67873 10.9049 6.16644 11.3191C5.58572 11.8001 5.09661 12.3742 4.72093 13.0158C4.57891 13.2498 4.04172 14.1878 3.9762 15.7149C3.93917 16.5804 4.2102 17.4739 4.33921 17.846C4.33907 17.847 4.33907 17.8479 4.33921 17.8488C4.4206 18.061 4.73843 18.8114 5.25893 19.4479C5.41012 19.6325 5.57222 19.8085 5.74443 19.9753C5.19268 19.6095 4.7006 19.1674 4.28427 18.6632C3.76825 18.034 3.45001 17.2914 3.36699 17.0722C3.36689 17.0706 3.36689 17.0691 3.36699 17.0675V17.0648C3.23758 16.6931 2.96573 15.7991 3.00358 14.9324C3.0691 13.4054 3.60628 12.4681 3.74831 12.2333C4.12388 11.5917 4.613 11.0176 5.19382 10.5367C5.706 10.1223 6.28669 9.79279 6.91199 9.56155C7.30202 9.40646 7.70833 9.29203 8.1239 9.22027C8.75019 9.11549 9.38984 9.1064 10.0191 9.19336V9.91493C9.2856 9.92643 8.56113 10.0721 7.88461 10.344Z" fill="#69C9D0"/>
        <path d="M15.408 3.03476H12.9662V15.4619C12.9662 15.8987 12.9662 16.32 12.8148 16.7408C12.5682 17.4125 12.0437 18.019 11.3445 18.2881C10.295 18.6922 9.47454 18.6474 8.49581 18.0276C8.25285 17.8673 8.03917 17.6696 7.8634 17.4425C8.69726 17.8688 9.44361 17.8614 10.3682 17.5057C11.067 17.2366 11.5923 16.6301 11.8381 15.958C11.992 15.5383 11.9899 15.1159 11.9899 14.6795V2.25H15.3616C15.3616 2.25 15.3237 2.55891 15.408 3.03476ZM20.0253 6.74328V7.43483C19.6295 7.34447 19.2458 7.21085 18.8817 7.0366C18.1765 6.69921 17.6271 6.14964 17.5197 6.03848C17.6443 6.11693 17.7737 6.1883 17.9071 6.25222C18.7645 6.66255 19.609 6.78502 20.0253 6.74328Z" fill="#69C9D0"/>
    </symbol>
    <symbol id="linkedin" viewBox="0 0 32 32" fill="none">    
        <rect x="2" y="2" width="28" height="28" rx="14" fill="#1275B1"/>
        <path d="M12.6186 9.69215C12.6186 10.6267 11.8085 11.3843 10.8093 11.3843C9.81004 11.3843 9 10.6267 9 9.69215C9 8.7576 9.81004 8 10.8093 8C11.8085 8 12.6186 8.7576 12.6186 9.69215Z" fill="white"/>
        <path d="M9.24742 12.6281H12.3402V22H9.24742V12.6281Z" fill="white"/>
        <path d="M17.3196 12.6281H14.2268V22H17.3196C17.3196 22 17.3196 19.0496 17.3196 17.2049C17.3196 16.0976 17.6977 14.9855 19.2062 14.9855C20.911 14.9855 20.9008 16.4345 20.8928 17.5571C20.8824 19.0244 20.9072 20.5219 20.9072 22H24V17.0537C23.9738 13.8954 23.1508 12.4401 20.4433 12.4401C18.8354 12.4401 17.8387 13.1701 17.3196 13.8305V12.6281Z" fill="white"/>
    </symbol>
</svg>