<svg xmlns="http://www.w3.org/2000/svg">
    <symbol id="translate" viewBox="0 0 25 23" fill="">    
        <path d="M15.29 18.4529C15.1623 18.4516 15.0369 18.421 14.9257 18.3638C14.8145 18.3066 14.7211 18.2247 14.6542 18.1259C14.5873 18.027 14.549 17.9143 14.5431 17.7984C14.5371 17.6825 14.5636 17.5671 14.62 17.463L16.76 13.5851C16.8238 13.4735 16.9199 13.3799 17.038 13.3142C17.156 13.2486 17.2916 13.2135 17.43 13.2128C17.5697 13.2135 17.7064 13.2495 17.8248 13.3169C17.9432 13.3843 18.0385 13.4803 18.1 13.5942L20.244 17.4721C20.3249 17.6337 20.3335 17.8176 20.2679 17.9848C20.2024 18.1521 20.0679 18.2897 19.8928 18.3687C19.7176 18.4476 19.5156 18.4617 19.3293 18.4079C19.1429 18.3542 18.9869 18.2368 18.894 18.0805L17.43 15.4196L15.97 18.0805C15.9039 18.1923 15.8058 18.2858 15.6862 18.3513C15.5666 18.4168 15.4297 18.4519 15.29 18.4529Z" fill=""/>
        <path d="M19.1799 17.7628H15.6599C15.4614 17.7616 15.2714 17.6894 15.131 17.5619C14.9907 17.4345 14.9112 17.2619 14.9099 17.0816C14.9112 16.9014 14.9907 16.7288 15.131 16.6013C15.2714 16.4738 15.4614 16.4017 15.6599 16.4005H19.1799C19.3788 16.4005 19.5696 16.4723 19.7102 16.6C19.8509 16.7277 19.9299 16.901 19.9299 17.0816C19.9299 17.2623 19.8509 17.4355 19.7102 17.5633C19.5696 17.691 19.3788 17.7628 19.1799 17.7628Z" fill=""/>
        <path d="M17.4201 21.477C16.267 21.477 15.1399 21.1665 14.1811 20.5847C13.2224 20.0029 12.4751 19.176 12.0339 18.2086C11.5926 17.2411 11.4772 16.1765 11.7021 15.1495C11.9271 14.1224 12.4823 13.179 13.2977 12.4386C14.113 11.6981 15.1518 11.1938 16.2827 10.9896C17.4136 10.7853 18.5858 10.8901 19.6511 11.2908C20.7164 11.6916 21.627 12.3702 22.2676 13.2409C22.9082 14.1116 23.2501 15.1352 23.2501 16.1824C23.2485 17.5862 22.6338 18.932 21.5408 19.9247C20.4478 20.9173 18.9658 21.4756 17.4201 21.477ZM17.4201 12.2591C16.5637 12.2591 15.7265 12.4898 15.0145 12.9219C14.3024 13.354 13.7474 13.9681 13.4197 14.6866C13.092 15.4052 13.0062 16.1959 13.1733 16.9587C13.3404 17.7215 13.7528 18.4221 14.3583 18.9721C14.9639 19.522 15.7354 19.8966 16.5753 20.0483C17.4153 20.2 18.2859 20.1221 19.0771 19.8245C19.8683 19.5269 20.5446 19.0229 21.0204 18.3762C21.4961 17.7295 21.7501 16.9692 21.7501 16.1915C21.7496 15.1487 21.2932 14.1488 20.4813 13.4114C19.6694 12.6741 18.5683 12.2596 17.4201 12.2591Z" fill=""/>
        <path d="M5.36006 12.3501C4.40392 12.3991 3.46539 12.1019 2.75006 11.5237C2.39812 11.175 2.12798 10.7649 1.95607 10.3183C1.78415 9.87183 1.71406 9.39822 1.75006 8.92632V5.36632C1.69082 4.9037 1.74758 4.4349 1.91609 3.99502C2.0846 3.55515 2.3605 3.15559 2.72313 2.82626C3.08576 2.49693 3.52573 2.24637 4.01009 2.09333C4.49445 1.94029 5.01065 1.88875 5.52006 1.94255H9.44006C9.95979 1.90851 10.4817 1.97154 10.9736 2.12773C11.4655 2.28392 11.9169 2.52997 12.3001 2.85071C12.6328 3.19508 12.885 3.59724 13.0414 4.03278C13.1978 4.46833 13.2552 4.92819 13.2101 5.38449V8.92632C13.2583 9.38978 13.2006 9.8573 13.0405 10.2996C12.8805 10.7418 12.6216 11.1493 12.2801 11.4964C11.8935 11.8062 11.4413 12.041 10.9512 12.1862C10.4611 12.3314 9.94341 12.3841 9.43006 12.341H5.53006C5.47374 12.3481 5.4169 12.3511 5.36006 12.3501ZM5.52006 3.31387C3.91006 3.31387 3.25006 3.91326 3.25006 5.3754V8.9354C3.21871 9.22386 3.25026 9.5151 3.34292 9.79247C3.43558 10.0698 3.58752 10.3279 3.79006 10.5519C4.27146 10.8948 4.8823 11.0514 5.49006 10.9879H9.43006C9.74355 11.0242 10.0619 11.0028 10.3661 10.9248C10.6702 10.8467 10.9539 10.7137 11.2001 10.5338C11.3943 10.3119 11.5377 10.057 11.6219 9.78409C11.706 9.51115 11.7292 9.22568 11.6901 8.94449V5.36632C11.7277 5.09007 11.7047 4.80976 11.6223 4.54164C11.5399 4.27352 11.3998 4.0229 11.2101 3.80428C10.9634 3.62034 10.6792 3.48235 10.3738 3.39821C10.0684 3.31406 9.74768 3.2854 9.43006 3.31387H5.52006Z" fill=""/>
        <path d="M9.49994 6.81024H5.43994C5.24143 6.80905 5.05143 6.73691 4.91106 6.60943C4.77069 6.48195 4.69125 6.3094 4.68994 6.12912C4.69125 5.94884 4.77069 5.77629 4.91106 5.64881C5.05143 5.52133 5.24143 5.44919 5.43994 5.448H9.49994C9.69885 5.448 9.88962 5.51976 10.0303 5.64749C10.1709 5.77523 10.2499 5.94848 10.2499 6.12912C10.2499 6.30977 10.1709 6.48301 10.0303 6.61075C9.88962 6.73848 9.69885 6.81024 9.49994 6.81024Z" fill=""/>
        <path d="M7.47998 6.81024C7.28147 6.80905 7.09147 6.73691 6.9511 6.60943C6.81073 6.48195 6.73129 6.3094 6.72998 6.12912V5.51157C6.73129 5.33129 6.81073 5.15873 6.9511 5.03126C7.09147 4.90378 7.28147 4.83163 7.47998 4.83044C7.67849 4.83163 7.86849 4.90378 8.00886 5.03126C8.14923 5.15873 8.22867 5.33129 8.22998 5.51157V6.12912C8.22867 6.3094 8.14923 6.48195 8.00886 6.60943C7.86849 6.73691 7.67849 6.80905 7.47998 6.81024Z" fill=""/>
        <path d="M5.43994 9.67997C5.24103 9.67997 5.05026 9.6082 4.90961 9.48047C4.76896 9.35273 4.68994 9.17949 4.68994 8.99884C4.68994 8.8182 4.76896 8.64495 4.90961 8.51722C5.05026 8.38948 5.24103 8.31772 5.43994 8.31772C5.74989 8.31066 6.05527 8.24819 6.33863 8.1339C6.62199 8.01962 6.87777 7.85574 7.09137 7.65164C7.30496 7.44754 7.47218 7.20722 7.58347 6.94441C7.69475 6.6816 7.74792 6.40145 7.73994 6.11997C7.73994 5.93932 7.81896 5.76607 7.95961 5.63834C8.10026 5.5106 8.29103 5.43884 8.48994 5.43884C8.68885 5.43884 8.87962 5.5106 9.02027 5.63834C9.16092 5.76607 9.23994 5.93932 9.23994 6.11997C9.25491 7.04944 8.86319 7.94633 8.15075 8.61377C7.43831 9.28121 6.46338 9.66467 5.43994 9.67997Z" fill=""/>
        <path d="M9.50992 9.68008C9.02864 9.66957 8.55668 9.55741 8.13142 9.35248C7.70617 9.14756 7.33931 8.85551 7.05992 8.49947C6.94057 8.35495 6.88932 8.1733 6.91745 7.99447C6.94558 7.81564 7.05079 7.65428 7.20992 7.5459C7.36905 7.43751 7.56907 7.39097 7.76598 7.41652C7.96289 7.44206 8.14057 7.5376 8.25992 7.68212C8.39733 7.87166 8.58227 8.02892 8.79955 8.14101C9.01683 8.25309 9.26028 8.3168 9.50992 8.32692C9.70842 8.32811 9.89843 8.40025 10.0388 8.52773C10.1792 8.65521 10.2586 8.82776 10.2599 9.00804C10.2581 9.18733 10.1781 9.35867 10.0376 9.4846C9.89706 9.61052 9.70734 9.68081 9.50992 9.68008Z" fill=""/>
        <path d="M9.5 21.4771C7.44563 21.474 5.47638 20.7314 4.02372 19.4122C2.57106 18.0929 1.75344 16.3045 1.75 14.4388C1.75131 14.2585 1.83075 14.086 1.97112 13.9585C2.11149 13.831 2.30149 13.7589 2.5 13.7577C2.69851 13.7589 2.88851 13.831 3.02888 13.9585C3.16925 14.086 3.24869 14.2585 3.25 14.4388C3.25119 15.7201 3.72884 16.9634 4.60552 17.9673C5.4822 18.9711 6.70652 19.6767 8.08 19.9695L7.81 19.5609C7.75944 19.4839 7.72606 19.3987 7.71176 19.3101C7.69747 19.2214 7.70254 19.1311 7.72668 19.0442C7.75082 18.9574 7.79357 18.8757 7.85248 18.8038C7.91138 18.732 7.9853 18.6714 8.07 18.6254C8.1547 18.5795 8.24853 18.5492 8.34614 18.5362C8.44374 18.5232 8.5432 18.5279 8.63885 18.5498C8.73449 18.5717 8.82444 18.6105 8.90357 18.664C8.98269 18.7175 9.04944 18.7846 9.1 18.8616L10.15 20.4509C10.2178 20.5534 10.2545 20.6705 10.2563 20.7902C10.258 20.9098 10.2248 21.0278 10.16 21.132C10.0916 21.2359 9.99499 21.3221 9.87946 21.3825C9.76393 21.4429 9.6333 21.4755 9.5 21.4771Z" fill=""/>
        <path d="M22.4999 9.67094C22.3014 9.66975 22.1114 9.5976 21.971 9.47013C21.8306 9.34265 21.7512 9.17009 21.7499 8.98981C21.7487 7.70855 21.2711 6.46521 20.3944 5.46135C19.5177 4.45748 18.2934 3.75194 16.9199 3.4591L17.1899 3.86777C17.2405 3.9447 17.2738 4.02991 17.2881 4.11855C17.3024 4.20719 17.2974 4.29752 17.2732 4.38438C17.2491 4.47124 17.2063 4.55293 17.1474 4.62479C17.0885 4.69665 17.0146 4.75727 16.9299 4.80318C16.8452 4.8491 16.7514 4.87941 16.6538 4.8924C16.5562 4.90538 16.4567 4.90078 16.361 4.87885C16.2654 4.85692 16.1754 4.8181 16.0963 4.76461C16.0172 4.71111 15.9505 4.64398 15.8999 4.56706L14.8499 2.97777C14.7827 2.87486 14.7467 2.7576 14.7456 2.63795C14.7446 2.51829 14.7785 2.40052 14.8439 2.29665C14.9073 2.1916 15.0009 2.10407 15.1146 2.04332C15.2283 1.98257 15.358 1.95086 15.4899 1.95155C17.545 1.95371 19.5152 2.69582 20.9688 4.01518C22.4223 5.33453 23.2405 7.12348 23.2439 8.98981C23.2451 9.0791 23.2267 9.16771 23.1898 9.25048C23.1529 9.33326 23.0983 9.40853 23.029 9.47193C22.9598 9.53532 22.8773 9.58556 22.7865 9.61973C22.6956 9.6539 22.5982 9.67131 22.4999 9.67094Z" fill=""/>    
    </symbol>
    <symbol id="shoppingCart" viewBox="0 0 24 21" fill="none">    
        <path d="M9.74801 19.1048C9.74801 19.2794 9.69101 19.45 9.58422 19.5952C9.47742 19.7403 9.32563 19.8535 9.14804 19.9203C8.97045 19.9871 8.77503 20.0046 8.5865 19.9705C8.39797 19.9364 8.22479 19.8524 8.08886 19.7289C7.95294 19.6055 7.86038 19.4482 7.82287 19.277C7.78537 19.1058 7.80462 18.9283 7.87818 18.767C7.95174 18.6058 8.07632 18.4679 8.23614 18.3709C8.39597 18.2739 8.58388 18.2222 8.77611 18.2222C9.03387 18.2222 9.28108 18.3152 9.46335 18.4807C9.64562 18.6462 9.74801 18.8707 9.74801 19.1048Z" stroke="" stroke-width="1.58679" stroke-linecap="round" stroke-linejoin="round"/>
        <path d="M20.4404 19.1048C20.4404 19.2794 20.3834 19.45 20.2766 19.5952C20.1698 19.7403 20.018 19.8535 19.8404 19.9203C19.6628 19.9871 19.4674 20.0046 19.2789 19.9705C19.0903 19.9364 18.9172 19.8524 18.7812 19.7289C18.6453 19.6055 18.5528 19.4482 18.5153 19.277C18.4778 19.1058 18.497 18.9283 18.5706 18.767C18.6441 18.6058 18.7687 18.4679 18.9285 18.3709C19.0884 18.2739 19.2763 18.2222 19.4685 18.2222C19.7263 18.2222 19.9735 18.3152 20.1557 18.4807C20.338 18.6462 20.4404 18.8707 20.4404 19.1048Z" stroke="" stroke-width="1.58679" stroke-linecap="round" stroke-linejoin="round"/>
        <path d="M1 1.44897H4.88763L7.49313 13.2693C7.58188 13.6757 7.82526 14.0409 8.18063 14.3008C8.53601 14.5607 8.98074 14.6988 9.43694 14.6909H18.8855C19.3417 14.6988 19.7864 14.5607 20.1418 14.3008C20.4971 14.0409 20.7405 13.6757 20.8293 13.2693L22.3843 5.86294H5.86033" stroke="" stroke-width="1.58679" stroke-linecap="round" stroke-linejoin="round"/>
    </symbol>
    <symbol id="user" viewBox="0 0 19 20" fill="none">    
        <path d="M9.35727 13C6.1872 13 3.36807 14.5306 1.57327 16.906C1.18698 17.4172 0.993832 17.6728 1.00015 18.0183C1.00503 18.2852 1.17263 18.6219 1.38264 18.7867C1.65446 19 2.03114 19 2.7845 19H15.93C16.6834 19 17.0601 19 17.3319 18.7867C17.5419 18.6219 17.7095 18.2852 17.7144 18.0183C17.7207 17.6728 17.5276 17.4172 17.1413 16.906C15.3465 14.5306 12.5273 13 9.35727 13Z" stroke="" stroke-width="1.5" stroke-linecap="round" stroke-linejoin="round"/>
        <path d="M9.35727 10C11.8426 10 13.8573 7.98528 13.8573 5.5C13.8573 3.01472 11.8426 1 9.35727 1C6.87199 1 4.85727 3.01472 4.85727 5.5C4.85727 7.98528 6.87199 10 9.35727 10Z" stroke="" stroke-width="1.5" stroke-linecap="round" stroke-linejoin="round"/>
    </symbol>
    <symbol id="calling" viewBox="0 0 21 21" fill="none">    
        <path d="M1.49006 3.37521C1.80606 2.85021 3.55006 0.945209 4.79306 1.00121C5.16524 1.05791 5.50664 1.24079 5.76006 1.51921C6.71668 2.5268 7.54528 3.64861 8.22706 4.85921C8.47206 6.02721 7.07806 6.70121 7.50006 7.87921C7.99663 9.15342 8.75251 10.3106 9.71977 11.2773C10.687 12.2441 11.8446 12.9993 13.1191 13.4952C14.2961 13.9222 14.9701 12.5302 16.1381 12.7722C17.3488 13.4541 18.4707 14.2831 19.4781 15.2402C19.7563 15.4936 19.9389 15.8351 19.9951 16.2072C20.0411 17.5162 18.0181 19.2842 17.6241 19.5072C16.6941 20.1732 15.4801 20.1612 14.0001 19.4732C9.87406 17.7582 3.27406 11.2832 1.52406 7.00121C0.854058 5.52621 0.809058 4.30121 1.49006 3.37521Z" stroke="#212529" stroke-width="1.5" stroke-miterlimit="10" stroke-linecap="round" stroke-linejoin="round"/>
        <path d="M13.0649 1.25122C14.8622 1.45088 16.5381 2.2557 17.8176 3.53353C19.097 4.81136 19.904 6.48625 20.1059 8.28322" stroke="#212529" stroke-width="1.5" stroke-miterlimit="10" stroke-linecap="round" stroke-linejoin="round"/>
        <path d="M13.0649 4.79419C13.9306 4.96249 14.7263 5.38558 15.3499 6.00919C15.9735 6.6328 16.3966 7.42848 16.5649 8.29419" stroke="#212529" stroke-width="1.5" stroke-miterlimit="10" stroke-linecap="round" stroke-linejoin="round"/>
    </symbol>
    <symbol id="message" viewBox="0 0 24 24" fill="none">    
        <path d="M17.2681 9.06104L13.0021 12.495C12.6105 12.8026 12.127 12.9697 11.6291 12.9697C11.1312 12.9697 10.6477 12.8026 10.2561 12.495L5.9541 9.06104" stroke="#212529" stroke-width="1.5" stroke-miterlimit="10" stroke-linecap="round" stroke-linejoin="round"/>
        <path d="M6.888 3.5H16.316C16.9901 3.50738 17.6556 3.6522 18.2719 3.92558C18.8881 4.19897 19.4421 4.59519 19.9 5.09C20.3587 5.58573 20.7126 6.16896 20.9404 6.80474C21.1683 7.44053 21.2654 8.11577 21.226 8.79V15.318C21.2654 15.9922 21.1683 16.6675 20.9404 17.3033C20.7126 17.939 20.3587 18.5223 19.9 19.018C19.4426 19.5123 18.8892 19.9083 18.2737 20.1816C17.6582 20.455 16.9934 20.6001 16.32 20.608H6.888C3.968 20.616 2 18.241 2 15.322V8.794C2 5.875 3.968 3.5 6.888 3.5Z" stroke="#212529" stroke-width="1.5" stroke-miterlimit="10" stroke-linecap="round" stroke-linejoin="round"/>  
    </symbol>
    <symbol id="truck" viewBox="0 0 24 24" fill="none">    
        <path d="M16 16V3H1V16H16ZM16 16H23V11L20 8H16V16ZM8 18.5C8 19.8807 6.88071 21 5.5 21C4.11929 21 3 19.8807 3 18.5C3 17.1193 4.11929 16 5.5 16C6.88071 16 8 17.1193 8 18.5ZM21 18.5C21 19.8807 19.8807 21 18.5 21C17.1193 21 16 19.8807 16 18.5C16 17.1193 17.1193 16 18.5 16C19.8807 16 21 17.1193 21 18.5Z" stroke="" stroke-linecap="round" stroke-linejoin="round"/>
    </symbol>
    <symbol id="trash" viewBox="0 0 24 24" fill="none">    
        <path d="M3 6.23043H5M5 6.23043H21M5 6.23043V19.692C5 20.202 5.21071 20.6911 5.58579 21.0518C5.96086 21.4124 6.46957 21.615 7 21.615H17C17.5304 21.615 18.0391 21.4124 18.4142 21.0518C18.7893 20.6911 19 20.202 19 19.692V6.23043H5ZM8 6.23043V4.30735C8 3.79732 8.21071 3.30818 8.58579 2.94753C8.96086 2.58689 9.46957 2.38428 10 2.38428H14C14.5304 2.38428 15.0391 2.58689 15.4142 2.94753C15.7893 3.30818 16 3.79732 16 4.30735V6.23043" stroke="#212529" stroke-width="2" stroke-linecap="round" stroke-linejoin="round"/>
    </symbol>
    <symbol id="loaction" viewBox="0 0 25 30" fill="none">    
        <path d="M1 12.4076C1.01034 9.37177 2.22623 6.46441 4.38018 4.32509C6.53413 2.18577 9.4497 0.989723 12.4855 1.00007C15.5213 1.01041 18.4287 2.2263 20.568 4.38025C22.7073 6.53419 23.9033 9.44977 23.893 12.4856V12.6156C23.815 16.7246 21.521 20.5226 18.708 23.4916C17.0993 25.1627 15.3027 26.6422 13.354 27.9006C13.1019 28.1186 12.7798 28.2387 12.4465 28.2387C12.1132 28.2387 11.7911 28.1186 11.539 27.9006C8.63446 26.0098 6.08526 23.6228 4.008 20.8486C2.15583 18.4289 1.10435 15.4919 1 12.4466L1 12.4076Z" stroke="#212529" stroke-width="2" stroke-miterlimit="10" stroke-linecap="round" stroke-linejoin="round"/>
        <path d="M12.4473 16.2975C14.4737 16.2975 16.1163 14.6548 16.1163 12.6285C16.1163 10.6021 14.4737 8.95947 12.4473 8.95947C10.421 8.95947 8.77832 10.6021 8.77832 12.6285C8.77832 14.6548 10.421 16.2975 12.4473 16.2975Z" stroke="#212529" stroke-width="2" stroke-miterlimit="10" stroke-linecap="round" stroke-linejoin="round"/>
    </symbol>
    <symbol id="edit" viewBox="0 0 16 18" fill="none">    
        <path d="M9.59958 1.71333C9.77114 1.50386 9.98449 1.33248 10.226 1.21013C10.4676 1.08778 10.7319 1.01715 11.0023 1.00276C11.2727 0.988357 11.5431 1.03051 11.7962 1.12651C12.0494 1.22252 12.2797 1.37027 12.4726 1.56033L13.8626 2.65033C14.0925 2.79217 14.2903 2.98031 14.4435 3.20279C14.5967 3.42526 14.7019 3.6772 14.7524 3.94255C14.8029 4.20791 14.7976 4.48087 14.7369 4.74407C14.6761 5.00727 14.5613 5.25495 14.3996 5.47133L6.10958 16.0463C5.97273 16.2211 5.79832 16.363 5.59926 16.4613C5.4002 16.5596 5.18158 16.6119 4.95958 16.6143L1.75958 16.6553L1.03858 13.5403C0.988347 13.3242 0.987154 13.0996 1.03509 12.8829C1.08302 12.6663 1.17886 12.4631 1.31558 12.2883L9.59958 1.71333Z" stroke="#262626" stroke-width="1.5" stroke-miterlimit="10" stroke-linecap="round" stroke-linejoin="round"/>
        <path d="M8.05273 3.69336L12.8467 7.45136" stroke="#262626" stroke-width="1.5" stroke-miterlimit="10" stroke-linecap="round" stroke-linejoin="round"/>
    </symbol>
    <symbol id="wallet" viewBox="0 0 24 22" fill="none">    
        <path d="M1.87502 2.65283H20.625C21.6563 2.65283 22.5 3.49658 22.5 4.52785V6.77787C22.5 7.80915 21.6563 8.65289 20.625 8.65289H1.87502C0.843746 8.6528 0 7.80905 0 6.77783V4.5278C0 3.49658 0.843746 2.65283 1.87502 2.65283Z" fill="#A86A3F"/>
        <path d="M5.98125 4.65904L17.7188 1.54656C18.1125 1.43406 18.525 1.67781 18.6375 2.07157L20.5875 9.27158C20.7 9.66534 20.4562 10.0778 20.0625 10.1903L4.78126 14.259C4.3875 14.3715 3.97503 14.1278 3.86253 13.734L2.4375 8.44654L5.98125 4.65904Z" fill="#3DB39E"/>
        <path d="M18.5439 9.04673L16.0127 9.72171C15.8064 9.77798 15.6002 9.66544 15.5627 9.4592C15.5064 9.25297 15.619 9.04668 15.8252 9.00922L18.0002 8.42798L16.8377 4.07799L14.6627 4.65923C14.4565 4.7155 14.2502 4.60296 14.2127 4.39672C14.1565 4.19049 14.269 3.98421 14.4752 3.94674L17.0065 3.27176C17.2127 3.21549 17.419 3.32803 17.4565 3.53427L18.8065 8.59675C18.8626 8.80298 18.7502 9.00922 18.5439 9.04673ZM8.04391 11.878L5.51267 12.553C5.30643 12.6092 5.10015 12.4967 5.06268 12.2905L3.71268 7.22799C3.65641 7.02175 3.76895 6.81547 3.97519 6.778L6.50643 6.10302C6.71266 6.04675 6.91894 6.15929 6.95641 6.36553C7.01268 6.57176 6.90014 6.77805 6.6939 6.81552L4.51891 7.39675L5.68139 11.7467L7.85638 11.1655C8.06262 11.1092 8.2689 11.2218 8.30637 11.428C8.36264 11.6155 8.25014 11.8217 8.04391 11.878Z" fill="#78CABB"/>
        <path d="M0.150153 7.28407C3.48762 5.37154 12.4877 0.10278 12.4877 0.10278C12.8439 -0.103456 13.3127 0.00904058 13.5189 0.365287L17.2689 6.81528C17.4752 7.17153 17.3439 7.62152 16.9877 7.8278L3.26263 15.7028C2.90638 15.909 2.43764 15.7965 2.23136 15.4403C2.23136 15.4403 1.18138 13.3028 0.131348 11.5028C0.131395 7.28408 0.150153 8.67155 0.150153 7.28407Z" fill="#5ABEAC"/>
        <path d="M15.3561 6.60929L12.7312 2.07178C12.6187 1.8843 12.3937 1.82803 12.2249 1.94053L9.95617 3.25302C9.7687 3.36551 9.71243 3.59051 9.82492 3.75927C9.93742 3.94675 10.1624 4.00302 10.3312 3.89053L12.2812 2.76552L14.5312 6.66552L12.5812 7.79053C12.3937 7.90302 12.3375 8.12802 12.4499 8.29679C12.5624 8.48426 12.7874 8.54054 12.9562 8.42804L15.2249 7.11555C15.3937 7.02181 15.4686 6.79682 15.3561 6.60929ZM5.41866 11.9156L3.46866 13.0406L1.21864 9.14053L3.16864 8.01552C3.35612 7.90302 3.41239 7.67803 3.2999 7.50926C3.1874 7.32179 2.96241 7.26551 2.79364 7.37801L0.524906 8.6905C0.337428 8.803 0.281156 9.02799 0.393652 9.19676L3.01863 13.7343C3.13113 13.9217 3.35612 13.978 3.52489 13.8655L5.79362 12.553C5.9811 12.4405 6.03737 12.2155 5.92487 12.0468C5.83113 11.8781 5.60614 11.803 5.41866 11.9156ZM6.37491 5.2968C4.93116 6.12179 4.44366 7.9593 5.26865 9.40304C6.1124 10.8468 7.93115 11.3343 9.37489 10.5093C10.8186 9.6843 11.3061 7.8468 10.4811 6.40306C9.6374 4.97802 7.81865 4.47181 6.37491 5.2968ZM15.3561 6.60929L12.7312 2.07178C12.6187 1.8843 12.3937 1.82803 12.2249 1.94053L9.95617 3.25302C9.7687 3.36551 9.71243 3.59051 9.82492 3.75927C9.93742 3.94675 10.1624 4.00302 10.3312 3.89053L12.2812 2.76552L14.5312 6.66552L12.5812 7.79053C12.3937 7.90302 12.3375 8.12802 12.4499 8.29679C12.5624 8.48426 12.7874 8.54054 12.9562 8.42804L15.2249 7.11555C15.3937 7.02181 15.4686 6.79682 15.3561 6.60929ZM5.41866 11.9156L3.46866 13.0406L1.21864 9.14053L3.16864 8.01552C3.35612 7.90302 3.41239 7.67803 3.2999 7.50926C3.1874 7.32179 2.96241 7.26551 2.79364 7.37801L0.524906 8.6905C0.337428 8.803 0.281156 9.02799 0.393652 9.19676L3.01863 13.7343C3.13113 13.9217 3.35612 13.978 3.52489 13.8655L5.79362 12.553C5.9811 12.4405 6.03737 12.2155 5.92487 12.0468C5.83113 11.8781 5.60614 11.803 5.41866 11.9156ZM6.37491 5.2968C4.93116 6.12179 4.44366 7.9593 5.26865 9.40304C6.1124 10.8468 7.93115 11.3343 9.37489 10.5093C10.8186 9.6843 11.3061 7.8468 10.4811 6.40306C9.6374 4.97802 7.81865 4.47181 6.37491 5.2968Z" fill="#8CD2C5"/>
        <path d="M21.375 21.4029H1.87502C0.843746 21.4029 0 20.5591 0 19.5278V6.02785H21.375C22.4063 6.02785 23.25 6.87159 23.25 7.90286V19.5279C23.25 20.5591 22.4062 21.4029 21.375 21.4029ZM1.50001 6.02785H0V4.52783C0 5.35282 0.674978 6.02785 1.50001 6.02785Z" fill="#C47E4D"/>
        <path d="M23.25 16.7153H20.25C18.8062 16.7153 17.625 15.5341 17.625 14.0903C17.625 12.6466 18.8062 11.4653 20.25 11.4653H23.25C23.6625 11.4653 24 11.8028 24 12.2153V15.9653C24 16.3778 23.6625 16.7153 23.25 16.7153Z" fill="#A86A3F"/>
        <path d="M20.25 12.5903C21.075 12.5903 21.75 13.2653 21.75 14.0903C21.75 14.9154 21.0751 15.5904 20.25 15.5904C19.425 15.5904 18.75 14.9154 18.75 14.0903C18.75 13.2653 19.425 12.5903 20.25 12.5903Z" fill="#EFC75E"/>
        <path d="M20.625 15.2155C19.8 15.2155 19.125 14.5406 19.125 13.7155C19.125 13.3968 19.2187 13.0968 19.3875 12.853C18.9937 13.1155 18.75 13.5655 18.75 14.0905C18.75 14.9155 19.425 15.5905 20.25 15.5905C20.7563 15.5905 21.2063 15.328 21.4875 14.953C21.2438 15.1218 20.9437 15.2155 20.625 15.2155Z" fill="#D7B354"/>
        <path d="M21.375 20.6529H1.87502C0.843746 20.6529 0 19.8091 0 18.7778V19.5278C0 20.5591 0.843746 21.4029 1.87502 21.4029H21.375C22.4063 21.4029 23.25 20.5591 23.25 19.5278V18.7778C23.25 19.8091 22.4062 20.6529 21.375 20.6529Z" fill="#B27245"/>
        <path d="M21.375 6.02785H1.50001C0.674978 6.02785 0 5.35282 0 4.52783V5.27784C0 6.10283 0.674978 6.77785 1.50001 6.77785H21.375C22.4063 6.77785 23.25 7.6216 23.25 8.65287V7.90286C23.25 6.87159 22.4062 6.02785 21.375 6.02785Z" fill="#CA8B5F"/>
    </symbol>
     <symbol id="cash" viewBox="0 0 35 32" fill="none">    
        <g clip-path="url(#clip0_501_2990)">
        <path d="M33.026 20.446H1.573C1.15614 20.4449 0.756654 20.2789 0.461888 19.9841C0.167121 19.6893 0.00105602 19.2899 0 18.873L0 1.573C0.00105602 1.15614 0.167121 0.756653 0.461888 0.461887C0.756654 0.167121 1.15614 0.00105602 1.573 0H33.026C33.4432 0.00079292 33.8431 0.166879 34.1381 0.461889C34.4331 0.7569 34.5992 1.15679 34.6 1.574V18.874C34.5987 19.2909 34.4324 19.6902 34.1374 19.9848C33.8425 20.2794 33.4429 20.4452 33.026 20.446Z" fill="#0E9347"/>
        <path d="M29.0952 14.1552C28.231 14.1447 27.3775 14.3472 26.6101 14.7449C25.8427 15.1425 25.185 15.7231 24.6952 16.4352C23.8731 15.9893 22.9562 15.7466 22.0212 15.7272C20.7011 15.7315 19.4267 16.2105 18.4305 17.0767C17.4343 17.9429 16.7829 19.1385 16.5952 20.4452H33.0292C33.4071 20.4439 33.7723 20.309 34.0602 20.0643C34.3481 19.8196 34.5401 19.4809 34.6022 19.1082C34.4447 17.7536 33.7984 16.5031 32.7845 15.5912C31.7706 14.6793 30.4588 14.1687 29.0952 14.1552Z" fill="#0D8944"/>
        <path d="M29.8812 18.8732H4.71824C4.7156 18.0399 4.38341 17.2415 3.79418 16.6523C3.20495 16.063 2.40654 15.7309 1.57324 15.7282V4.71922C2.40654 4.71658 3.20495 4.38439 3.79418 3.79515C4.38341 3.20592 4.7156 2.40751 4.71824 1.57422H29.8812C29.8839 2.40751 30.2161 3.20592 30.8053 3.79515C31.3945 4.38439 32.1929 4.71658 33.0262 4.71922V15.7282C32.1929 15.7309 31.3945 16.063 30.8053 16.6523C30.2161 17.2415 29.8839 18.0399 29.8812 18.8732Z" fill="#3BB54A"/>
        <path d="M29.0949 14.1552C28.2306 14.1447 27.3771 14.3472 26.6097 14.7449C25.8423 15.1425 25.1847 15.7231 24.6949 16.4352C23.873 15.9895 22.9566 15.7467 22.0219 15.7272C20.9808 15.718 19.9593 16.0101 19.0804 16.568C18.2015 17.126 17.5026 17.9262 17.0679 18.8722H29.8849C29.8828 18.0509 30.2029 17.2615 30.7763 16.6735C31.3497 16.0855 32.1308 15.7457 32.9519 15.7272C31.9114 14.734 30.5331 14.1723 29.0949 14.1552Z" fill="#0E9347"/>
        <path d="M17.2998 17.3C20.7742 17.3 23.5908 14.1315 23.5908 10.223C23.5908 6.31448 20.7742 3.146 17.2998 3.146C13.8254 3.146 11.0088 6.31448 11.0088 10.223C11.0088 14.1315 13.8254 17.3 17.2998 17.3Z" fill="#0E9347"/>
        <path d="M7.86402 11.7959C8.73276 11.7959 9.43702 11.0916 9.43702 10.2229C9.43702 9.35416 8.73276 8.6499 7.86402 8.6499C6.99527 8.6499 6.29102 9.35416 6.29102 10.2229C6.29102 11.0916 6.99527 11.7959 7.86402 11.7959Z" fill="#0E9347"/>
        <path d="M26.7361 11.7959C27.6048 11.7959 28.3091 11.0916 28.3091 10.2229C28.3091 9.35416 27.6048 8.6499 26.7361 8.6499C25.8673 8.6499 25.1631 9.35416 25.1631 10.2229C25.1631 11.0916 25.8673 11.7959 26.7361 11.7959Z" fill="#0E9347"/>
        <path d="M18.0858 9.43787H16.5128C16.3042 9.43787 16.1042 9.35501 15.9567 9.20751C15.8092 9.06001 15.7263 8.85996 15.7263 8.65137C15.7263 8.44277 15.8092 8.24273 15.9567 8.09523C16.1042 7.94773 16.3042 7.86487 16.5128 7.86487H18.8718C19.0804 7.86487 19.2805 7.78201 19.4279 7.63451C19.5754 7.48702 19.6583 7.28696 19.6583 7.07837C19.6583 6.86978 19.5754 6.66973 19.4279 6.52223C19.2805 6.37473 19.0804 6.29187 18.8718 6.29187H18.0858C18.0858 6.08328 18.003 5.88323 17.8555 5.73573C17.708 5.58824 17.5079 5.50537 17.2993 5.50537C17.0907 5.50537 16.8907 5.58824 16.7432 5.73573C16.5957 5.88323 16.5128 6.08328 16.5128 6.29187C15.8872 6.29187 15.2871 6.54041 14.8447 6.9828C14.4023 7.4252 14.1538 8.02523 14.1538 8.65087C14.1538 9.27652 14.4023 9.87654 14.8447 10.3189C15.2871 10.7613 15.8872 11.0099 16.5128 11.0099H18.0858C18.2944 11.0099 18.4945 11.0927 18.642 11.2402C18.7894 11.3877 18.8723 11.5878 18.8723 11.7964C18.8723 12.005 18.7894 12.205 18.642 12.3525C18.4945 12.5 18.2944 12.5829 18.0858 12.5829H15.7268C15.5182 12.5829 15.3182 12.6657 15.1707 12.8132C15.0232 12.9607 14.9403 13.1608 14.9403 13.3694C14.9403 13.578 15.0232 13.778 15.1707 13.9255C15.3182 14.073 15.5182 14.1559 15.7268 14.1559H16.5128C16.5128 14.3645 16.5957 14.5645 16.7432 14.712C16.8907 14.8595 17.0907 14.9424 17.2993 14.9424C17.5079 14.9424 17.708 14.8595 17.8555 14.712C18.003 14.5645 18.0858 14.3645 18.0858 14.1559C18.7114 14.1559 19.3115 13.9073 19.7539 13.4649C20.1963 13.0225 20.4448 12.4225 20.4448 11.7969C20.4448 11.1712 20.1963 10.5712 19.7539 10.1288C19.3115 9.68641 18.7114 9.43787 18.0858 9.43787Z" fill="#89C763"/>
        <path d="M20.4439 26.736C23.4837 26.736 25.9479 24.2718 25.9479 21.232C25.9479 18.1923 23.4837 15.728 20.4439 15.728C17.4042 15.728 14.9399 18.1923 14.9399 21.232C14.9399 24.2718 17.4042 26.736 20.4439 26.736Z" fill="#FFCA5D"/>
        <path d="M27.5211 25.1628C30.5609 25.1628 33.0251 22.6986 33.0251 19.6588C33.0251 16.619 30.5609 14.1548 27.5211 14.1548C24.4813 14.1548 22.0171 16.619 22.0171 19.6588C22.0171 22.6986 24.4813 25.1628 27.5211 25.1628Z" fill="#F6B545"/>
        <path d="M27.521 14.1549C26.4332 14.1549 25.3698 14.4774 24.4654 15.0818C23.5609 15.6861 22.8559 16.5451 22.4397 17.5501C22.0234 18.5551 21.9145 19.661 22.1267 20.7279C22.3389 21.7948 22.8627 22.7748 23.6319 23.544C24.4011 24.3131 25.3811 24.837 26.448 25.0492C27.5149 25.2614 28.6208 25.1525 29.6258 24.7362C30.6308 24.3199 31.4897 23.615 32.0941 22.7105C32.6984 21.806 33.021 20.7427 33.021 19.6549C33.025 18.9315 32.8854 18.2145 32.6104 17.5454C32.3355 16.8763 31.9305 16.2684 31.419 15.7569C30.9075 15.2454 30.2995 14.8404 29.6305 14.5654C28.9614 14.2904 28.2444 14.1509 27.521 14.1549ZM27.521 23.5909C26.7433 23.5909 25.9831 23.3603 25.3365 22.9282C24.6899 22.4961 24.1859 21.8821 23.8883 21.1636C23.5907 20.4451 23.5128 19.6545 23.6646 18.8918C23.8163 18.129 24.1908 17.4284 24.7407 16.8785C25.2906 16.3286 25.9912 15.9541 26.7539 15.8024C27.5166 15.6507 28.3072 15.7286 29.0257 16.0262C29.7442 16.3238 30.3583 16.8277 30.7903 17.4744C31.2224 18.121 31.453 18.8812 31.453 19.6589C31.4582 20.1767 31.3601 20.6903 31.1643 21.1697C30.9686 21.6491 30.6791 22.0847 30.313 22.4508C29.9468 22.817 29.5113 23.1064 29.0319 23.3022C28.5525 23.4979 28.0388 23.5961 27.521 23.5909Z" fill="#FFCB5B"/>
        <path d="M27.522 25.0852C28.2417 25.0985 28.9568 24.9678 29.6253 24.7008C30.2938 24.4338 30.9021 24.0358 31.4145 23.5302C31.9269 23.0247 32.3331 22.4218 32.6092 21.757C32.8852 21.0923 33.0256 20.379 33.022 19.6592H32.949C32.7565 19.6685 32.573 19.744 32.4298 19.873C32.2866 20.0021 32.1923 20.1766 32.163 20.3672C32.0072 21.4552 31.4793 22.4556 30.669 23.1982C29.9984 23.8346 29.1463 24.2467 28.231 24.3772C28.1376 24.376 28.045 24.3934 27.9585 24.4286C27.872 24.4637 27.7934 24.5158 27.7273 24.5818C27.6613 24.6478 27.6091 24.7263 27.5738 24.8127C27.5385 24.8992 27.5209 24.9918 27.522 25.0852Z" fill="#F6B545"/>
        <path d="M27.5211 14.2338C26.8014 14.2205 26.0863 14.3512 25.4178 14.6182C24.7493 14.8853 24.141 15.2832 23.6286 15.7888C23.1161 16.2943 22.71 16.8972 22.4339 17.562C22.1578 18.2267 22.0175 18.94 22.0211 19.6598H22.1001C22.2926 19.6506 22.4761 19.575 22.6193 19.446C22.7625 19.3169 22.8568 19.1424 22.8861 18.9518C23.0419 17.8638 23.5698 16.8634 24.3801 16.1208C25.0506 15.4841 25.9026 15.0717 26.8181 14.9408C26.9108 14.9412 27.0028 14.9232 27.0885 14.8878C27.1742 14.8523 27.2521 14.8002 27.3175 14.7344C27.3829 14.6686 27.4346 14.5905 27.4695 14.5046C27.5045 14.4186 27.522 14.3266 27.5211 14.2338Z" fill="#FFE27A"/>
        <path d="M24.1401 20.2101C24.1349 19.6923 24.2331 19.1787 24.4288 18.6993C24.6246 18.2199 24.914 17.7843 25.2802 17.4182C25.6464 17.052 26.0819 16.7626 26.5613 16.5668C27.0407 16.3711 27.5543 16.2729 28.0722 16.2781C28.9993 16.2672 29.897 16.604 30.5881 17.2221C30.0837 16.5804 29.3914 16.1122 28.608 15.8829C27.8245 15.6536 26.989 15.6747 26.2181 15.9431C25.4472 16.2116 24.7794 16.7141 24.3079 17.3805C23.8364 18.0469 23.5848 18.8439 23.5881 19.6602C23.5815 20.233 23.7054 20.7998 23.9506 21.3175C24.1958 21.8353 24.5558 22.2904 25.0032 22.6482C24.4306 21.9663 24.1241 21.1003 24.1401 20.2101Z" fill="#F19920"/>
        <path d="M29.8811 22.0971C29.8383 22.1024 29.795 22.098 29.7542 22.0843C29.7133 22.0706 29.676 22.048 29.6451 22.0181C29.6079 21.9826 29.5783 21.9399 29.558 21.8927C29.5378 21.8454 29.5273 21.7945 29.5273 21.7431C29.5273 21.6917 29.5378 21.6408 29.558 21.5935C29.5783 21.5463 29.6079 21.5036 29.6451 21.4681C30.1038 20.9779 30.3572 20.3305 30.3531 19.6591C30.3531 19.5549 30.3945 19.4549 30.4682 19.3812C30.5419 19.3075 30.6419 19.2661 30.7461 19.2661C30.8503 19.2661 30.9503 19.3075 31.024 19.3812C31.0977 19.4549 31.1391 19.5549 31.1391 19.6591C31.1407 20.5233 30.834 21.3598 30.2741 22.0181C30.1512 22.0752 30.0165 22.1023 29.8811 22.0971Z" fill="#FFCB5B"/>
        <path d="M27.5222 22.0188C27.4173 22.0251 27.3124 22.009 27.2142 21.9717C27.116 21.9345 27.0268 21.8768 26.9525 21.8025C26.8782 21.7282 26.8205 21.639 26.7832 21.5408C26.746 21.4426 26.7299 21.3376 26.7362 21.2328V18.0868C26.7362 17.8782 26.8191 17.6782 26.9666 17.5307C27.1141 17.3832 27.3141 17.3003 27.5227 17.3003C27.7313 17.3003 27.9313 17.3832 28.0788 17.5307C28.2263 17.6782 28.3092 17.8782 28.3092 18.0868V21.2318C28.3156 21.3368 28.2997 21.442 28.2624 21.5404C28.2251 21.6388 28.1674 21.7281 28.093 21.8026C28.0186 21.877 27.9292 21.9347 27.8308 21.972C27.7324 22.0093 27.6272 22.0252 27.5222 22.0188Z" fill="#F19920"/>
        <path d="M30.4313 24.299C30.1723 23.3482 29.6969 22.4701 29.0422 21.7335C28.3874 20.9969 27.5712 20.4218 26.6573 20.053C26.4836 19.1654 26.1285 18.323 25.6144 17.5789C25.1003 16.8347 24.4381 16.2046 23.6693 15.728C22.6767 16.7673 22.1147 18.144 22.0963 19.581C22.0924 20.3044 22.2321 21.0213 22.5071 21.6903C22.7822 22.3594 23.1871 22.9672 23.6986 23.4787C24.2101 23.9902 24.818 24.3952 25.487 24.6702C26.156 24.9452 26.8729 25.0849 27.5963 25.081C28.6017 25.1406 29.5986 24.8656 30.4313 24.299Z" fill="#F19920"/>
        <path d="M25.0049 22.647C24.419 21.9367 24.0868 21.0514 24.0609 20.131C24.0604 19.5973 24.1722 19.0695 24.3889 18.5818C24.6056 18.094 24.9225 17.6574 25.3189 17.3C25.1815 17.1005 25.0232 16.9161 24.8469 16.75C24.4428 17.1179 24.1217 17.5676 23.9048 18.0691C23.6879 18.5707 23.5802 19.1126 23.5889 19.659C23.5823 20.2319 23.7064 20.7988 23.9518 21.3165C24.1972 21.8343 24.5573 22.2893 25.0049 22.647Z" fill="#E78825"/>
        <path d="M26.7349 20.1309V21.2309C26.7349 21.4395 26.8177 21.6395 26.9652 21.787C27.1127 21.9345 27.3128 22.0174 27.5214 22.0174C27.73 22.0174 27.93 21.9345 28.0775 21.787C28.225 21.6395 28.3079 21.4395 28.3079 21.2309V21.0739C27.8313 20.6859 27.3016 20.3684 26.7349 20.1309Z" fill="#E78825"/>
        <path d="M30.4312 24.2992C30.3037 23.7704 30.0913 23.2659 29.8022 22.8052C29.1475 23.3075 28.3473 23.5833 27.5222 23.5912C27.0044 23.5964 26.4907 23.4982 26.0113 23.3025C25.5319 23.1067 25.0964 22.8173 24.7302 22.4511C24.3641 22.085 24.0746 21.6494 23.8789 21.17C23.6831 20.6906 23.585 20.177 23.5902 19.6592C23.5815 19.1128 23.6893 18.5708 23.9061 18.0693C24.123 17.5677 24.4441 17.1181 24.8482 16.7502C24.4836 16.3685 24.0586 16.0495 23.5902 15.8062C22.5976 16.8454 22.0356 18.2222 22.0172 19.6592C22.0132 20.3826 22.1527 21.0995 22.4277 21.7686C22.7027 22.4377 23.1077 23.0456 23.6192 23.5571C24.1307 24.0686 24.7386 24.4736 25.4077 24.7486C26.0768 25.0236 26.7938 25.1632 27.5172 25.1592C28.5519 25.1647 29.5653 24.8656 30.4312 24.2992Z" fill="#F6B545"/>
        <path d="M30.196 23.5908C29.5985 23.9792 28.9305 24.2462 28.23 24.3768C28.0394 24.4061 27.8649 24.5003 27.7358 24.6436C27.6068 24.7868 27.5313 24.9703 27.522 25.1628C28.5555 25.1658 29.567 24.865 30.431 24.2978L30.196 23.5908Z" fill="#F19920"/>
        <path d="M23.5901 15.8062C22.5975 16.8454 22.0355 18.2221 22.0171 19.6591H22.0961C22.2887 19.6499 22.4721 19.5743 22.6153 19.4453C22.7586 19.3163 22.8528 19.1417 22.8821 18.9511C23.0436 17.9049 23.5401 16.9393 24.2971 16.1992C24.0457 16.0987 23.8081 15.9666 23.5901 15.8062Z" fill="#FFCB5B"/>
        <path d="M20.4439 26.736C23.4837 26.736 25.9479 24.2718 25.9479 21.232C25.9479 18.1923 23.4837 15.728 20.4439 15.728C17.4042 15.728 14.9399 18.1923 14.9399 21.232C14.9399 24.2718 17.4042 26.736 20.4439 26.736Z" fill="#F6B545"/>
        <path d="M19.6578 25.1628C19.6591 25.6958 19.7387 26.2258 19.8938 26.7358H20.4438C21.3018 26.7386 22.1485 26.5401 22.9159 26.1562C23.6833 25.7723 24.3499 25.2138 24.8622 24.5256C25.3746 23.8373 25.7183 23.0385 25.8659 22.1932C26.0134 21.348 25.9607 20.4799 25.7118 19.6588H25.1618C24.4378 19.6544 23.7201 19.7938 23.0504 20.0688C22.3806 20.3439 21.7721 20.7491 21.2601 21.2611C20.7482 21.7731 20.3429 22.3816 20.0678 23.0513C19.7928 23.7211 19.6534 24.4388 19.6578 25.1628Z" fill="#F19920"/>
        <path d="M20.4438 15.7281C19.3561 15.7281 18.2927 16.0507 17.3882 16.655C16.4837 17.2594 15.7788 18.1183 15.3625 19.1233C14.9462 20.1283 14.8373 21.2342 15.0495 22.3011C15.2617 23.368 15.7856 24.348 16.5548 25.1172C17.324 25.8864 18.304 26.4102 19.3708 26.6224C20.4377 26.8346 21.5436 26.7257 22.5486 26.3094C23.5536 25.8932 24.4126 25.1882 25.0169 24.2837C25.6213 23.3793 25.9438 22.3159 25.9438 21.2281C25.9478 20.5047 25.8083 19.7877 25.5333 19.1186C25.2583 18.4496 24.8533 17.8417 24.3418 17.3302C23.8303 16.8186 23.2224 16.4137 22.5533 16.1387C21.8842 15.8637 21.1672 15.7241 20.4438 15.7281ZM20.4438 25.1641C19.6662 25.1641 18.906 24.9335 18.2594 24.5015C17.6127 24.0694 17.1088 23.4553 16.8112 22.7368C16.5136 22.0183 16.4357 21.2278 16.5874 20.465C16.7391 19.7023 17.1136 19.0017 17.6635 18.4518C18.2134 17.9019 18.914 17.5274 19.6768 17.3757C20.4395 17.2239 21.2301 17.3018 21.9486 17.5994C22.667 17.897 23.2811 18.401 23.7132 19.0476C24.1452 19.6942 24.3759 20.4544 24.3759 21.2321C24.3811 21.7499 24.2829 22.2636 24.0872 22.743C23.8914 23.2224 23.602 23.6579 23.2358 24.0241C22.8697 24.3902 22.4341 24.6797 21.9547 24.8754C21.4753 25.0712 20.9617 25.1693 20.4438 25.1641Z" fill="#FFCB5B"/>
        <path d="M20.4449 26.658C21.1646 26.6713 21.8797 26.5406 22.5481 26.2736C23.2166 26.0065 23.8249 25.6086 24.3373 25.103C24.8498 24.5975 25.256 23.9946 25.532 23.3298C25.8081 22.665 25.9484 21.9518 25.9449 21.2319H25.8658C25.6733 21.2412 25.4899 21.3168 25.3466 21.4458C25.2034 21.5749 25.1091 21.7494 25.0798 21.9399C24.9241 23.0279 24.3961 24.0283 23.5859 24.7709C22.9153 25.4077 22.0633 25.8201 21.1478 25.951C21.0551 25.9506 20.9632 25.9686 20.8774 26.004C20.7917 26.0395 20.7139 26.0916 20.6484 26.1574C20.583 26.2232 20.5313 26.3013 20.4964 26.3872C20.4614 26.4731 20.4439 26.5652 20.4449 26.658Z" fill="#F6B545"/>
        <path d="M20.4439 15.8061C19.7242 15.7928 19.0091 15.9234 18.3406 16.1905C17.6722 16.4575 17.0639 16.8555 16.5514 17.361C16.039 17.8665 15.6328 18.4694 15.3568 19.1342C15.0807 19.799 14.9403 20.5123 14.9439 21.2321H15.0229C15.2155 21.2228 15.3989 21.1473 15.5422 21.0182C15.6854 20.8892 15.7796 20.7146 15.8089 20.5241C15.9647 19.4361 16.4926 18.4357 17.3029 17.6931C17.9735 17.0563 18.8255 16.6439 19.7409 16.5131C19.8337 16.5135 19.9256 16.4954 20.0113 16.46C20.0971 16.4246 20.1749 16.3725 20.2403 16.3067C20.3057 16.2409 20.3574 16.1628 20.3924 16.0768C20.4273 15.9909 20.4448 15.8989 20.4439 15.8061Z" fill="#FFE27A"/>
        <path d="M17.063 21.783C17.0578 21.2652 17.1559 20.7515 17.3517 20.2721C17.5475 19.7927 17.8369 19.3572 18.203 18.991C18.5692 18.6248 19.0047 18.3354 19.4841 18.1397C19.9635 17.9439 20.4772 17.8458 20.995 17.851C21.9222 17.8401 22.8198 18.1769 23.511 18.795C23.0062 18.1538 22.3139 17.6862 21.5307 17.4572C20.7474 17.2283 19.9123 17.2495 19.1417 17.5179C18.371 17.7863 17.7034 18.2885 17.2318 18.9545C16.7602 19.6204 16.5083 20.4169 16.511 21.233C16.5043 21.8058 16.6283 22.3726 16.8735 22.8904C17.1187 23.4081 17.4786 23.8631 17.926 24.221C17.3535 23.5391 17.0469 22.6732 17.063 21.783Z" fill="#F19920"/>
        <path d="M22.804 23.6699C22.7612 23.6751 22.7179 23.6707 22.677 23.6571C22.6362 23.6434 22.5989 23.6208 22.568 23.5909C22.5308 23.5554 22.5011 23.5127 22.4809 23.4655C22.4607 23.4182 22.4502 23.3673 22.4502 23.3159C22.4502 23.2645 22.4607 23.2136 22.4809 23.1663C22.5011 23.1191 22.5308 23.0764 22.568 23.0409C23.0267 22.5507 23.2801 21.9032 23.276 21.2319C23.276 21.1276 23.3174 21.0277 23.3911 20.954C23.4648 20.8803 23.5647 20.8389 23.6689 20.8389C23.7732 20.8389 23.8731 20.8803 23.9468 20.954C24.0205 21.0277 24.062 21.1276 24.062 21.2319C24.0635 22.0961 23.7568 22.9325 23.197 23.5909C23.0741 23.648 22.9394 23.6751 22.804 23.6699Z" fill="#FFCB5B"/>
        <path d="M20.449 23.5911C20.3441 23.5973 20.2391 23.5813 20.1409 23.544C20.0427 23.5067 19.9535 23.449 19.8793 23.3748C19.805 23.3005 19.7473 23.2113 19.71 23.1131C19.6727 23.0149 19.6567 22.9099 19.6629 22.8051V19.6601C19.6629 19.4515 19.7458 19.2514 19.8933 19.1039C20.0408 18.9564 20.2409 18.8735 20.4494 18.8735C20.658 18.8735 20.8581 18.9564 21.0056 19.1039C21.1531 19.2514 21.2359 19.4515 21.2359 19.6601V22.8051C21.2422 22.91 21.2262 23.0151 21.1888 23.1133C21.1515 23.2116 21.0937 23.3009 21.0193 23.3752C20.9449 23.4494 20.8556 23.5071 20.7573 23.5443C20.659 23.5815 20.5539 23.5975 20.449 23.5911Z" fill="#F19920"/>
        <path d="M24.0612 19.738C24.2487 20.215 24.3551 20.72 24.3762 21.232C24.3813 21.7498 24.2831 22.2634 24.0872 22.7427C23.8914 23.2221 23.602 23.6575 23.2359 24.0237C22.8697 24.3898 22.4342 24.6793 21.9549 24.8751C21.4755 25.0709 20.962 25.1691 20.4442 25.164C20.1797 25.1768 19.9148 25.1501 19.6582 25.085V25.164C19.6595 25.6971 19.739 26.2271 19.8942 26.737H20.4442C21.3022 26.7398 22.1489 26.5413 22.9163 26.1574C23.6837 25.7736 24.3503 25.2151 24.8626 24.5268C25.3749 23.8386 25.7187 23.0397 25.8662 22.1945C26.0138 21.3492 25.961 20.4812 25.7122 19.66H25.1622C24.7935 19.6469 24.4244 19.673 24.0612 19.738Z" fill="#F6B545"/>
        <path d="M24.3761 31.4528C27.4158 31.4528 29.8801 28.9886 29.8801 25.9488C29.8801 22.909 27.4158 20.4448 24.3761 20.4448C21.3363 20.4448 18.8721 22.909 18.8721 25.9488C18.8721 28.9886 21.3363 31.4528 24.3761 31.4528Z" fill="#F6B545"/>
        <path d="M24.376 20.4459C23.2882 20.4459 22.2248 20.7684 21.3203 21.3728C20.4159 21.9771 19.7109 22.8361 19.2946 23.8411C18.8784 24.8461 18.7694 25.952 18.9817 27.0189C19.1939 28.0858 19.7177 29.0658 20.4869 29.835C21.2561 30.6042 22.2361 31.128 23.303 31.3402C24.3699 31.5524 25.4757 31.4435 26.4807 31.0272C27.4857 30.6109 28.3447 29.906 28.9491 29.0015C29.5534 28.097 29.876 27.0337 29.876 25.9459C29.8798 25.2225 29.7402 24.5056 29.4651 23.8366C29.1901 23.1676 28.7851 22.5597 28.2736 22.0482C27.7621 21.5367 27.1543 21.1317 26.4853 20.8567C25.8162 20.5817 25.0993 20.442 24.376 20.4459ZM24.376 29.8819C23.5983 29.8819 22.8381 29.6513 22.1915 29.2192C21.5449 28.7872 21.0409 28.1731 20.7433 27.4546C20.4457 26.7361 20.3678 25.9455 20.5195 25.1828C20.6712 24.4201 21.0457 23.7194 21.5956 23.1695C22.1455 22.6196 22.8462 22.2451 23.6089 22.0934C24.3716 21.9417 25.1622 22.0196 25.8807 22.3172C26.5992 22.6148 27.2133 23.1188 27.6453 23.7654C28.0774 24.412 28.308 25.1722 28.308 25.9499C28.3131 26.4676 28.2148 26.9812 28.019 27.4606C27.8232 27.9399 27.5338 28.3754 27.1676 28.7415C26.8015 29.1077 26.366 29.3971 25.8867 29.5929C25.4073 29.7887 24.8937 29.887 24.376 29.8819Z" fill="#FFCB5B"/>
        <path d="M24.376 31.3772C25.0957 31.3905 25.8108 31.2598 26.4793 30.9928C27.1477 30.7258 27.7561 30.3278 28.2685 29.8223C28.781 29.3167 29.1871 28.7139 29.4632 28.0491C29.7393 27.3843 29.8796 26.671 29.876 25.9512H29.797C29.6045 25.9605 29.421 26.036 29.2778 26.1651C29.1346 26.2941 29.0403 26.4686 29.011 26.6592C28.8552 27.7472 28.3273 28.7476 27.517 29.4902C26.8465 30.1269 25.9944 30.5394 25.079 30.6702C24.9862 30.6698 24.8943 30.6878 24.8086 30.7233C24.7229 30.7587 24.645 30.8108 24.5796 30.8766C24.5142 30.9424 24.4625 31.0205 24.4276 31.1064C24.3926 31.1924 24.3751 31.2844 24.376 31.3772Z" fill="#F6B545"/>
        <path d="M24.376 20.5239C23.6563 20.5105 22.9412 20.6412 22.2728 20.9082C21.6043 21.1753 20.996 21.5733 20.4836 22.0788C19.9711 22.5843 19.5649 23.1872 19.2889 23.852C19.0128 24.5168 18.8725 25.2301 18.876 25.9499H18.9551C19.1476 25.9406 19.331 25.865 19.4743 25.736C19.6175 25.607 19.7117 25.4324 19.741 25.2419C19.8968 24.1539 20.4248 23.1535 21.2351 22.4109C21.9056 21.7741 22.7576 21.3617 23.673 21.2309C23.7658 21.2313 23.8577 21.2132 23.9435 21.1778C24.0292 21.1424 24.107 21.0902 24.1725 21.0245C24.2379 20.9587 24.2895 20.8805 24.3245 20.7946C24.3594 20.7087 24.377 20.6166 24.376 20.5239Z" fill="#FFE27A"/>
        <path d="M21 26.5012C20.9949 25.9835 21.0932 25.4699 21.289 24.9905C21.4848 24.5112 21.7742 24.0757 22.1403 23.7096C22.5065 23.3434 22.942 23.054 23.4213 22.8582C23.9007 22.6624 24.4142 22.5641 24.932 22.5692C25.8592 22.5583 26.7568 22.8951 27.448 23.5132C26.9432 22.8721 26.2509 22.4044 25.4677 22.1755C24.6844 21.9466 23.8493 21.9678 23.0787 22.2362C22.308 22.5046 21.6404 23.0068 21.1688 23.6727C20.6973 24.3387 20.4453 25.1352 20.448 25.9512C20.4413 26.5241 20.5653 27.0909 20.8105 27.6086C21.0557 28.1264 21.4156 28.5814 21.863 28.9392C21.2905 28.2574 20.984 27.3914 21 26.5012Z" fill="#F19920"/>
        <path d="M26.7361 28.3881C26.6933 28.3934 26.65 28.389 26.6092 28.3753C26.5683 28.3617 26.5311 28.339 26.5001 28.3091C26.4629 28.2736 26.4333 28.231 26.413 28.1837C26.3928 28.1364 26.3823 28.0855 26.3823 28.0341C26.3823 27.9827 26.3928 27.9318 26.413 27.8846C26.4333 27.8373 26.4629 27.7946 26.5001 27.7591C26.9588 27.2689 27.2122 26.6215 27.2081 25.9501C27.2081 25.8459 27.2495 25.7459 27.3232 25.6722C27.3969 25.5985 27.4968 25.5571 27.6011 25.5571C27.7053 25.5571 27.8053 25.5985 27.879 25.6722C27.9527 25.7459 27.9941 25.8459 27.9941 25.9501C27.9957 26.8143 27.689 27.6508 27.1291 28.3091C27.0062 28.3662 26.8715 28.3933 26.7361 28.3881Z" fill="#FFCB5B"/>
        <path d="M24.3762 28.3088C24.2713 28.3151 24.1663 28.2991 24.0681 28.2618C23.9699 28.2245 23.8807 28.1668 23.8065 28.0925C23.7322 28.0183 23.6745 27.9291 23.6372 27.8309C23.6 27.7327 23.5839 27.6277 23.5902 27.5228V24.3768C23.5902 24.1682 23.673 23.9682 23.8205 23.8207C23.968 23.6732 24.1681 23.5903 24.3767 23.5903C24.5853 23.5903 24.7853 23.6732 24.9328 23.8207C25.0803 23.9682 25.1632 24.1682 25.1632 24.3768V27.5268C25.1689 27.6314 25.1524 27.7361 25.1148 27.8339C25.0772 27.9317 25.0193 28.0204 24.945 28.0943C24.8707 28.1681 24.7816 28.2254 24.6835 28.2624C24.5855 28.2994 24.4808 28.3152 24.3762 28.3088Z" fill="#F19920"/>
        </g>
        <defs>
        <clipPath id="clip0_501_2990">
        <rect width="34.599" height="31.454" fill="white"/>
        </clipPath>
        </defs>
    </symbol>
    <symbol id="success" viewBox="0 0 338 338" fill="none">    
        <path fill-rule="evenodd" clip-rule="evenodd" d="M169 115.931L282.385 160.019V290.944L169 335.031L55.6152 290.944V160.019L169 115.931Z" fill="#A45E26"/>
        <path fill-rule="evenodd" clip-rule="evenodd" d="M169 115.931L282.385 160.019V290.944L169 335.031V115.931Z" fill="#D1834F"/>
        <path fill-rule="evenodd" clip-rule="evenodd" d="M169 203.969L143.212 248.636L29.707 204.502L55.4954 159.834L169 203.969ZM169 203.969L194.788 248.636L308.293 204.502L282.505 159.834L169 203.969Z" fill="#C36A26"/>
        <path fill-rule="evenodd" clip-rule="evenodd" d="M282.207 159.949L169 115.931L55.792 159.949L169 203.968L282.207 159.949Z" fill="#9B5D2B"/>
        <path fill-rule="evenodd" clip-rule="evenodd" d="M282.208 159.949L169 115.931V203.968L282.208 159.949Z" fill="#873D0C"/>
        <path fill-rule="evenodd" clip-rule="evenodd" d="M168.99 174.172C201.06 174.172 227.216 148.016 227.216 115.946C227.216 83.8768 201.06 57.7207 168.99 57.7207C136.921 57.7207 110.765 83.8768 110.765 115.946C110.765 148.016 136.921 174.172 168.99 174.172Z" fill="#53B1FD"/>
        <path fill-rule="evenodd" clip-rule="evenodd" d="M191.036 89.394C194.333 86.0978 199.677 86.0978 202.973 89.394C206.269 92.6895 206.269 98.0341 202.973 101.33L161.803 142.5C158.07 146.233 151.903 145.646 148.907 141.356L131.587 119.558C128.691 115.916 129.296 110.615 132.938 107.721C136.581 104.824 141.88 105.43 144.776 109.072L156.547 123.885L191.036 89.394Z" fill="#EFF4F7"/>
        <path fill-rule="evenodd" clip-rule="evenodd" d="M275.297 112.055C275.995 112.047 276.688 112.178 277.336 112.44C277.984 112.702 278.573 113.09 279.069 113.581C279.566 114.072 279.96 114.657 280.23 115.301C280.499 115.946 280.637 116.637 280.637 117.336C280.637 118.034 280.499 118.726 280.23 119.371C279.96 120.015 279.566 120.6 279.069 121.091C278.573 121.582 277.984 121.97 277.336 122.232C276.688 122.494 275.995 122.625 275.297 122.617H250.562C249.863 122.625 249.17 122.494 248.522 122.232C247.875 121.97 247.286 121.582 246.789 121.091C246.292 120.6 245.898 120.015 245.629 119.371C245.36 118.726 245.221 118.034 245.221 117.336C245.221 116.637 245.36 115.946 245.629 115.301C245.898 114.657 246.292 114.072 246.789 113.581C247.286 113.09 247.875 112.702 248.522 112.44C249.17 112.178 249.863 112.047 250.562 112.055H275.297ZM163.708 8.25C163.708 6.84932 164.264 5.50602 165.255 4.51559C166.245 3.52517 167.589 2.96875 168.989 2.96875C170.39 2.96875 171.733 3.52517 172.724 4.51559C173.714 5.50602 174.271 6.84932 174.271 8.25V32.9854C174.271 34.3861 173.714 35.7294 172.724 36.7198C171.733 37.7102 170.39 38.2666 168.989 38.2666C167.589 38.2666 166.245 37.7102 165.255 36.7198C164.264 35.7294 163.708 34.3861 163.708 32.9854V8.25ZM110.397 24.6047C110.053 24.006 109.83 23.3453 109.742 22.6605C109.653 21.9757 109.7 21.28 109.88 20.6134C110.06 19.9467 110.37 19.3221 110.791 18.7751C111.213 18.2281 111.738 17.7695 112.337 17.4255C112.935 17.0814 113.596 16.8587 114.281 16.7699C114.966 16.6812 115.661 16.7282 116.328 16.9083C116.995 17.0884 117.619 17.3981 118.166 17.8196C118.713 18.2411 119.172 18.7663 119.516 19.3651L131.883 40.7858C132.578 41.995 132.764 43.4307 132.4 44.7771C132.037 46.1235 131.153 47.2702 129.944 47.965C128.734 48.6598 127.299 48.8458 125.952 48.4821C124.606 48.1184 123.459 47.2347 122.765 46.0255L110.397 24.6047ZM72.3873 65.4539C71.7886 65.1071 71.264 64.6459 70.8435 64.0964C70.4231 63.5469 70.115 62.92 69.9368 62.2514C69.7587 61.5828 69.714 60.8857 69.8053 60.1999C69.8966 59.514 70.1221 58.8529 70.4689 58.2542C70.8156 57.6555 71.2769 57.131 71.8263 56.7106C72.3757 56.2902 73.0026 55.9821 73.6711 55.804C74.3396 55.6259 75.0366 55.5811 75.7224 55.6724C76.4082 55.7636 77.0693 55.989 77.6679 56.3358L99.0887 68.7031C99.6928 69.0471 100.223 69.5072 100.648 70.057C101.074 70.6067 101.386 71.2353 101.568 71.9063C101.749 72.5774 101.796 73.2778 101.706 73.9671C101.615 74.6564 101.39 75.321 101.041 75.9225C100.693 76.5241 100.229 77.0508 99.6757 77.4722C99.1228 77.8936 98.492 78.2014 97.8196 78.3779C97.1472 78.5544 96.4465 78.5961 95.7579 78.5005C95.0693 78.405 94.4064 78.1741 93.8074 77.8212L72.3873 65.4539ZM59.9038 119.838C59.2053 119.845 58.5122 119.715 57.8647 119.453C57.2171 119.191 56.6279 118.803 56.1313 118.312C55.6346 117.821 55.2403 117.236 54.9712 116.591C54.702 115.947 54.5635 115.255 54.5635 114.557C54.5635 113.858 54.702 113.167 54.9712 112.522C55.2403 111.877 55.6346 111.293 56.1313 110.801C56.6279 110.31 57.2171 109.922 57.8647 109.661C58.5122 109.399 59.2053 109.268 59.9038 109.276H84.6392C85.3376 109.268 86.0307 109.399 86.6783 109.661C87.3258 109.922 87.915 110.31 88.4117 110.801C88.9084 111.293 89.3027 111.877 89.5718 112.522C89.8409 113.167 89.9795 113.858 89.9795 114.557C89.9795 115.255 89.8409 115.947 89.5718 116.591C89.3027 117.236 88.9084 117.821 88.4117 118.312C87.915 118.803 87.3258 119.191 86.6783 119.453C86.0307 119.715 85.3376 119.845 84.6392 119.838H59.9038ZM218.092 20.754C218.436 20.1553 218.895 19.6302 219.442 19.2087C219.989 18.7872 220.614 18.4776 221.281 18.2975C221.947 18.1174 222.643 18.0704 223.328 18.1592C224.013 18.2479 224.673 18.4707 225.272 18.8148C225.871 19.1589 226.396 19.6175 226.817 20.1646C227.239 20.7116 227.548 21.3363 227.728 22.003C227.909 22.6696 227.956 23.3653 227.867 24.0501C227.778 24.7349 227.555 25.3956 227.211 25.9943L214.844 47.4151C214.149 48.6241 213.002 49.5076 211.656 49.8713C210.309 50.235 208.874 50.0492 207.665 49.3546C206.456 48.6594 205.572 47.5125 205.209 46.1662C204.845 44.8199 205.031 43.3842 205.725 42.1748L218.092 20.754ZM258.922 58.7427C260.131 58.0424 261.569 57.8511 262.919 58.2108C264.269 58.5706 265.422 59.452 266.122 60.6611C266.822 61.8704 267.013 63.3082 266.653 64.6583C266.293 66.0085 265.412 67.1604 264.203 67.8608L242.782 80.2282C241.574 80.9161 240.142 81.0985 238.8 80.7355C237.458 80.3724 236.313 79.4935 235.616 78.2902C234.919 77.0869 234.726 75.6569 235.079 74.3119C235.432 72.9669 236.303 71.816 237.501 71.1101L258.922 58.7427Z" fill="#DB1E3C"/>
    </symbol>
    <symbol id="box" viewBox="0 0 72 72" fill="none">    
        <path d="M62.2461 41.6672V18.9375C62.247 18.7227 62.191 18.5115 62.084 18.3253C61.977 18.1391 61.8227 17.9845 61.6367 17.8771L32.082 0.814649C31.8968 0.707681 31.6866 0.651367 31.4727 0.651367C31.2587 0.651367 31.0486 0.707681 30.8633 0.814649L1.3086 17.8771C1.12262 17.9845 0.968306 18.1391 0.861296 18.3253C0.754285 18.5115 0.698376 18.7227 0.699228 18.9375V53.0625C0.698376 53.2772 0.754285 53.4884 0.861296 53.6746C0.968306 53.8608 1.12262 54.0154 1.3086 54.1228L30.8633 71.1853C31.0486 71.2922 31.2587 71.3486 31.4727 71.3486C31.6866 71.3486 31.8968 71.2922 32.082 71.1853L43.1849 64.7747C44.5688 66.7136 46.3802 68.3081 48.4791 69.4348C50.578 70.5615 52.908 71.1901 55.2887 71.272C57.6695 71.354 60.0371 70.887 62.2085 69.9073C64.3799 68.9276 66.2967 67.4614 67.8107 65.6223C69.3246 63.7831 70.3951 61.6202 70.9392 59.301C71.4833 56.9818 71.4865 54.5685 70.9486 52.2479C70.4106 49.9273 69.3459 47.7616 67.8369 45.9184C66.3278 44.0751 64.4149 42.6039 62.2461 41.6184V41.6672ZM31.4727 3.27652L58.5899 18.9375L44.9886 26.7862L19.8092 10.0162L31.4727 3.27652ZM31.4727 34.5984L4.35548 18.9375L17.457 11.369L42.6242 28.1512L31.4727 34.5984ZM3.13673 21.0459L30.2539 36.7068V68.0165L3.13673 52.3556V21.0459ZM32.6914 68.0165V36.7068L43.6602 30.3328V39.8268C43.6602 40.1501 43.7886 40.4601 44.0171 40.6886C44.2457 40.9172 44.5557 41.0456 44.8789 41.0456C45.2021 41.0456 45.5121 40.9172 45.7407 40.6886C45.9693 40.4601 46.0977 40.1501 46.0977 39.8268V28.9312L59.7477 21.0459V40.8018C58.4568 40.4491 57.1249 40.2688 55.7867 40.2656C53.1493 40.2723 50.5572 40.9513 48.2551 42.2384C45.953 43.5254 44.0171 45.3781 42.6301 47.6214C41.2432 49.8647 40.451 52.4245 40.3284 55.0591C40.2058 57.6937 40.7569 60.316 41.9295 62.6784L32.6914 68.0165ZM55.8477 68.9062C53.2564 68.9062 50.7234 68.1378 48.5688 66.6982C46.4143 65.2586 44.735 63.2124 43.7434 60.8184C42.7518 58.4244 42.4923 55.7901 42.9978 53.2487C43.5034 50.7072 44.7512 48.3727 46.5835 46.5405C48.4157 44.7082 50.7502 43.4604 53.2917 42.9548C55.8331 42.4493 58.4674 42.7088 60.8614 43.7004C63.2554 44.692 65.3016 46.3713 66.7412 48.5258C68.1808 50.6804 68.9492 53.2134 68.9492 55.8047C68.946 59.2784 67.5646 62.609 65.1083 65.0653C62.652 67.5216 59.3214 68.903 55.8477 68.9062Z" fill="#EC1C2E"/>
        <path d="M61.6359 49.4794L54.0796 59.4488L50.1187 54.7932C49.9102 54.5427 49.6108 54.3852 49.2862 54.3555C48.9616 54.3258 48.6386 54.4262 48.3881 54.6347C48.1376 54.8432 47.9801 55.1427 47.9504 55.4672C47.9207 55.7918 48.0212 56.1148 48.2296 56.3654L53.1046 62.191C53.2191 62.3248 53.3611 62.4322 53.521 62.5058C53.6809 62.5794 53.8549 62.6176 54.0309 62.6175C54.2139 62.612 54.3933 62.5653 54.5557 62.4809C54.7182 62.3965 54.8596 62.2766 54.9693 62.13L63.4396 50.9541C63.5984 50.8485 63.7302 50.707 63.8243 50.5412C63.9185 50.3754 63.9724 50.1898 63.9818 49.9993C63.9911 49.8088 63.9557 49.6188 63.8782 49.4445C63.8008 49.2703 63.6835 49.1166 63.5359 48.9959C63.3883 48.8752 63.2144 48.7908 63.0282 48.7496C62.842 48.7083 62.6487 48.7113 62.4639 48.7583C62.2791 48.8054 62.1079 48.8951 61.9641 49.0204C61.8203 49.1456 61.7079 49.3028 61.6359 49.4794Z" fill="#EC1C2E"/>
    </symbol>
     <symbol id="boxTime" viewBox="0 0 25 24" fill="none">    
        <path d="M12.0427 13.3002C11.9094 13.3014 11.7782 13.2669 11.6627 13.2002L2.83274 8.08719C2.66329 7.98495 2.54091 7.82011 2.49206 7.62834C2.4432 7.43656 2.47181 7.23326 2.57169 7.06242C2.67157 6.89157 2.83469 6.76691 3.02577 6.71541C3.21685 6.6639 3.42052 6.68968 3.59274 6.78719L12.0427 11.6772L20.4427 6.81719C20.6156 6.71855 20.8203 6.69157 21.0128 6.74204C21.2054 6.79251 21.3705 6.91642 21.4727 7.08719C21.5714 7.26007 21.5984 7.46473 21.5479 7.65727C21.4974 7.84981 21.3735 8.01492 21.2027 8.11719L12.4327 13.1972C12.3117 13.2593 12.1787 13.2945 12.0427 13.3002Z" fill="#212529"/>
        <path d="M12.043 22.36C11.8445 22.3587 11.6545 22.2793 11.5141 22.1389C11.3737 21.9986 11.2943 21.8085 11.293 21.61V12.54C11.2943 12.3415 11.3737 12.1515 11.5141 12.0112C11.6545 11.8708 11.8445 11.7913 12.043 11.79C12.2415 11.7913 12.4315 11.8708 12.5719 12.0112C12.7122 12.1515 12.7917 12.3415 12.793 12.54V21.61C12.7917 21.8085 12.7122 21.9986 12.5719 22.1389C12.4315 22.2793 12.2415 22.3587 12.043 22.36Z" fill="#212529"/>
        <path d="M12.0438 22.7502C11.1944 22.7673 10.3547 22.5677 9.60383 22.1702L4.26383 19.2102C3.50719 18.7448 2.87572 18.1016 2.42433 17.3365C1.97294 16.5714 1.71531 15.7076 1.67383 14.8202L1.67383 9.16024C1.71658 8.27318 1.97475 7.40989 2.42602 6.645C2.87729 5.88011 3.50807 5.23664 4.26383 4.77024L9.60383 1.81024C10.3608 1.43531 11.1941 1.24023 12.0388 1.24023C12.8836 1.24023 13.7169 1.43531 14.4738 1.81024L19.8138 4.77024C20.5705 5.23567 21.2019 5.87891 21.6533 6.644C22.1047 7.4091 22.3623 8.27289 22.4038 9.16024V14.8202C22.406 14.9211 22.396 15.0218 22.3738 15.1202C22.3452 15.2475 22.284 15.3652 22.1961 15.4617C22.1082 15.5581 21.9968 15.6301 21.8727 15.6704C21.7486 15.7108 21.6162 15.7181 21.4884 15.6918C21.3606 15.6655 21.2419 15.6064 21.1438 15.5202C20.5679 15.0325 19.8409 14.759 19.0863 14.7462C18.3317 14.7335 17.5959 14.9822 17.0038 15.4502C16.6228 15.7526 16.3151 16.1373 16.1038 16.5754C15.8925 17.0135 15.7831 17.4938 15.7838 17.9802C15.7821 18.5698 15.9449 19.1481 16.2538 19.6502C16.3241 19.7757 16.4079 19.8931 16.5038 20.0002C16.5771 20.0841 16.6304 20.1834 16.6599 20.2908C16.6893 20.3981 16.6941 20.5108 16.6738 20.6202C16.6545 20.7302 16.6103 20.8343 16.5444 20.9245C16.4785 21.0146 16.3928 21.0885 16.2938 21.1402L14.4638 22.1502C13.7259 22.5645 12.8898 22.7718 12.0438 22.7502ZM12.0438 2.75024C11.4548 2.73757 10.8714 2.86797 10.3438 3.13024L5.00383 6.09024C4.48483 6.42667 4.05114 6.87914 3.73702 7.41193C3.4229 7.94472 3.23694 8.54325 3.19383 9.16024V14.8202C3.2377 15.437 3.42398 16.0353 3.73803 16.568C4.05209 17.1006 4.48536 17.5532 5.00383 17.8902L10.3438 20.8502C10.8769 21.1021 11.4592 21.2328 12.0488 21.2328C12.6384 21.2328 13.2207 21.1021 13.7538 20.8502L14.8738 20.2302C14.3458 19.2523 14.1777 18.1201 14.3988 17.031C14.6199 15.9418 15.2162 14.9648 16.0838 14.2702C16.7587 13.7431 17.5613 13.4043 18.4098 13.2884C19.2582 13.1724 20.1223 13.2835 20.9138 13.6102V9.15024C20.87 8.53344 20.6837 7.9352 20.3696 7.40253C20.0556 6.86985 19.6223 6.41724 19.1038 6.08024L13.7638 3.12024C13.2259 2.86818 12.6378 2.74166 12.0438 2.75024Z" fill="#212529"/>
        <path d="M19.0439 22.7501C17.9253 22.7557 16.8403 22.3683 15.9782 21.6556C15.1161 20.9428 14.5316 19.95 14.3268 18.8503C14.122 17.7507 14.3098 16.614 14.8575 15.6387C15.4052 14.6633 16.278 13.9113 17.3235 13.5138C18.3691 13.1163 19.5211 13.0985 20.5784 13.4636C21.6357 13.8287 22.5312 14.5535 23.1087 15.5115C23.6862 16.4695 23.9089 17.5999 23.7381 18.7053C23.5672 19.8108 23.0136 20.8211 22.1739 21.5601C21.3094 22.3232 20.197 22.7462 19.0439 22.7501ZM19.0439 14.7501C18.1819 14.7501 17.3553 15.0925 16.7458 15.702C16.1363 16.3115 15.7939 17.1381 15.7939 18.0001C15.7939 18.862 16.1363 19.6887 16.7458 20.2982C17.3553 20.9077 18.1819 21.2501 19.0439 21.2501C19.8341 21.2444 20.5964 20.9572 21.1939 20.4401C21.6889 20.0032 22.0391 19.4259 22.1981 18.7851C22.3571 18.1443 22.3172 17.4702 22.0838 16.8526C21.8505 16.235 21.4346 15.703 20.8916 15.3275C20.3486 14.9519 19.7041 14.7505 19.0439 14.7501Z" fill="#212529"/>
        <path d="M18.0437 19.75C17.8799 19.75 17.7207 19.6961 17.5905 19.5967C17.4604 19.4973 17.3665 19.3579 17.3233 19.2C17.2801 19.042 17.2901 18.8743 17.3515 18.7225C17.413 18.5707 17.5227 18.4433 17.6637 18.36L18.5537 17.83V16.75C18.5537 16.5511 18.6327 16.3603 18.7733 16.2197C18.914 16.079 19.1048 16 19.3037 16C19.5026 16 19.6933 16.079 19.834 16.2197C19.9746 16.3603 20.0537 16.5511 20.0537 16.75V18.25C20.0535 18.3786 20.0203 18.5049 19.9572 18.617C19.8942 18.7291 19.8034 18.8231 19.6937 18.89L18.4437 19.64C18.3227 19.712 18.1845 19.75 18.0437 19.75Z" fill="#212529"/>
    </symbol>
    <symbol id="uploadImg" viewBox="0 0 33 29" fill="none">    
        <path d="M17.0398 7.40189L17.0972 7.33609L16.8746 6.83082C17.0565 6.8851 17.2467 6.78118 17.3003 6.60024C17.8572 4.72882 19.6114 3.42193 21.5662 3.42193C21.7552 3.42193 21.9085 3.26862 21.9085 3.07962C21.9085 2.89061 21.7552 2.7373 21.5662 2.7373C19.2743 2.7373 17.3418 4.2367 16.6782 6.29545L16.5952 6.39055L16.1651 6.26226C16.1651 6.26236 16.165 6.26246 16.165 6.26256C16.0321 6.70879 16.2865 7.17722 16.7317 7.31L17.0398 7.40189Z" fill="#DB1E3C" stroke="#F9FFF9"/>
        <path d="M26.358 19.853H24.3041C24.1151 19.853 23.9618 19.6997 23.9618 19.5106C23.9618 19.3216 24.1151 19.1683 24.3041 19.1683H26.358C29.1891 19.1683 31.4926 16.8648 31.4926 14.0337C31.4926 11.2026 29.1891 8.8991 26.358 8.8991H26.3086C26.2093 8.8991 26.1149 8.85606 26.0499 8.781C25.9848 8.70594 25.9555 8.60642 25.9697 8.50813C26.0002 8.29492 26.0156 8.08074 26.0156 7.87218C26.0156 5.41857 24.0192 3.42215 21.5656 3.42215C20.6111 3.42215 19.7008 3.72044 18.933 4.285C18.7643 4.40897 18.5247 4.35395 18.4271 4.16837C16.2527 0.0279277 10.5735 -0.528092 7.62909 3.07373C6.38873 4.59113 5.90138 6.56502 6.2919 8.48883C6.33493 8.70131 6.17233 8.89936 5.95643 8.89936H5.81927C2.98816 8.89936 0.684649 11.2029 0.684649 14.034C0.684649 16.8651 2.98816 19.1686 5.81927 19.1686H7.87309C8.06209 19.1686 8.2154 19.3219 8.2154 19.5109C8.2154 19.6999 8.0621 19.8532 7.87309 19.8532H5.81927C2.61059 19.8532 0 17.2426 0 14.034C0 10.9153 2.46606 8.36166 5.55055 8.22082C5.26081 6.2249 5.81487 4.21164 7.09899 2.64047C10.2514 -1.21611 16.2927 -0.783837 18.8466 3.51653C19.6613 3.00576 20.5935 2.73781 21.5655 2.73781C24.5382 2.73781 26.8938 5.26797 26.6877 8.22401C29.7437 8.39541 32.1771 10.9356 32.1771 14.0337C32.1771 17.2426 29.5665 19.853 26.3578 19.853L26.358 19.853Z" fill="#DB1E3C"/>
        <path d="M6.98535 19.3171C6.98535 24.312 11.0483 28.3749 16.0432 28.3749C21.0381 28.3749 25.101 24.312 25.101 19.3171C25.101 14.3221 21.0381 10.2593 16.0432 10.2593C11.0482 10.2593 6.98535 14.3222 6.98535 19.3171ZM8.67013 19.3171C8.67013 15.2521 11.9781 11.9441 16.0432 11.9441C20.1081 11.9441 23.4162 15.252 23.4162 19.3171C23.4162 23.3821 20.1081 26.6901 16.0432 26.6901C11.9782 26.6901 8.67013 23.3821 8.67013 19.3171Z" fill="#DB1E3C" stroke="#F9FFF9"/>
        <path d="M15.7992 22.7626C15.7992 22.9838 15.9786 23.1632 16.1998 23.1632C16.421 23.1632 16.6004 22.984 16.6004 22.7626V16.2467C16.6004 16.0255 16.421 15.8461 16.1998 15.8461C15.9786 15.8461 15.7992 16.0255 15.7992 16.2467V22.7626Z" fill="#DB1E3C" stroke="#DB1E3C" stroke-width="0.3"/>
        <path d="M16.1998 16.8138L14.4784 18.5353L14.4783 18.5354L16.1998 16.8138ZM16.1998 16.8138L17.9214 18.5354C17.9214 18.5354 17.9214 18.5354 17.9214 18.5354C17.9996 18.6135 18.1025 18.6527 18.2047 18.6527L16.1998 16.8138ZM18.488 18.5354C18.6445 18.3789 18.6445 18.1253 18.488 17.9688L16.4831 15.964C16.3267 15.8075 16.073 15.8074 15.9166 15.964L18.488 18.5354ZM18.488 18.5354C18.4096 18.6139 18.3066 18.6527 18.2047 18.6527L18.4882 18.5352C18.4881 18.5352 18.488 18.5353 18.488 18.5354Z" fill="#DB1E3C" stroke="#DB1E3C" stroke-width="0.3"/>
    </symbol>



    <symbol id="facebook" viewBox="0 0 32 32" fill="none">    
        <circle cx="16" cy="16" r="14" fill="url(#paint0_linear_363_2102)"/>
        <path d="M21.2137 20.2816L21.8356 16.3301H17.9452V13.767C17.9452 12.6857 18.4877 11.6311 20.2302 11.6311H22V8.26699C22 8.26699 20.3945 8 18.8603 8C15.6548 8 13.5617 9.89294 13.5617 13.3184V16.3301H10V20.2816H13.5617V29.8345C14.2767 29.944 15.0082 30 15.7534 30C16.4986 30 17.2302 29.944 17.9452 29.8345V20.2816H21.2137Z" fill="white"/>
        <defs>
        <linearGradient id="paint0_linear_363_2102" x1="16" y1="2" x2="16" y2="29.917" gradientUnits="userSpaceOnUse">
        <stop stop-color="#18ACFE"/>
        <stop offset="1" stop-color="#0163E0"/>
        </linearGradient>
        </defs>
    </symbol>
     <symbol id="instagram" viewBox="0 0 32 32" fill="none">    
        <rect x="2" y="2" width="28" height="28" rx="6" fill="url(#paint0_radial_363_2100)"/>
        <rect x="2" y="2" width="28" height="28" rx="6" fill="url(#paint1_radial_363_2100)"/>
        <rect x="2" y="2" width="28" height="28" rx="6" fill="url(#paint2_radial_363_2100)"/>
        <path d="M23 10.5C23 11.3284 22.3284 12 21.5 12C20.6716 12 20 11.3284 20 10.5C20 9.67157 20.6716 9 21.5 9C22.3284 9 23 9.67157 23 10.5Z" fill="white"/>
        <path fill-rule="evenodd" clip-rule="evenodd" d="M16 21C18.7614 21 21 18.7614 21 16C21 13.2386 18.7614 11 16 11C13.2386 11 11 13.2386 11 16C11 18.7614 13.2386 21 16 21ZM16 19C17.6569 19 19 17.6569 19 16C19 14.3431 17.6569 13 16 13C14.3431 13 13 14.3431 13 16C13 17.6569 14.3431 19 16 19Z" fill="white"/>
        <path fill-rule="evenodd" clip-rule="evenodd" d="M6 15.6C6 12.2397 6 10.5595 6.65396 9.27606C7.2292 8.14708 8.14708 7.2292 9.27606 6.65396C10.5595 6 12.2397 6 15.6 6H16.4C19.7603 6 21.4405 6 22.7239 6.65396C23.8529 7.2292 24.7708 8.14708 25.346 9.27606C26 10.5595 26 12.2397 26 15.6V16.4C26 19.7603 26 21.4405 25.346 22.7239C24.7708 23.8529 23.8529 24.7708 22.7239 25.346C21.4405 26 19.7603 26 16.4 26H15.6C12.2397 26 10.5595 26 9.27606 25.346C8.14708 24.7708 7.2292 23.8529 6.65396 22.7239C6 21.4405 6 19.7603 6 16.4V15.6ZM15.6 8H16.4C18.1132 8 19.2777 8.00156 20.1779 8.0751C21.0548 8.14674 21.5032 8.27659 21.816 8.43597C22.5686 8.81947 23.1805 9.43139 23.564 10.184C23.7234 10.4968 23.8533 10.9452 23.9249 11.8221C23.9984 12.7223 24 13.8868 24 15.6V16.4C24 18.1132 23.9984 19.2777 23.9249 20.1779C23.8533 21.0548 23.7234 21.5032 23.564 21.816C23.1805 22.5686 22.5686 23.1805 21.816 23.564C21.5032 23.7234 21.0548 23.8533 20.1779 23.9249C19.2777 23.9984 18.1132 24 16.4 24H15.6C13.8868 24 12.7223 23.9984 11.8221 23.9249C10.9452 23.8533 10.4968 23.7234 10.184 23.564C9.43139 23.1805 8.81947 22.5686 8.43597 21.816C8.27659 21.5032 8.14674 21.0548 8.0751 20.1779C8.00156 19.2777 8 18.1132 8 16.4V15.6C8 13.8868 8.00156 12.7223 8.0751 11.8221C8.14674 10.9452 8.27659 10.4968 8.43597 10.184C8.81947 9.43139 9.43139 8.81947 10.184 8.43597C10.4968 8.27659 10.9452 8.14674 11.8221 8.0751C12.7223 8.00156 13.8868 8 15.6 8Z" fill="white"/>
        <defs>
        <radialGradient id="paint0_radial_363_2100" cx="0" cy="0" r="1" gradientUnits="userSpaceOnUse" gradientTransform="translate(12 23) rotate(-55.3758) scale(25.5196)">
        <stop stop-color="#B13589"/>
        <stop offset="0.79309" stop-color="#C62F94"/>
        <stop offset="1" stop-color="#8A3AC8"/>
        </radialGradient>
        <radialGradient id="paint1_radial_363_2100" cx="0" cy="0" r="1" gradientUnits="userSpaceOnUse" gradientTransform="translate(11 31) rotate(-65.1363) scale(22.5942)">
        <stop stop-color="#E0E8B7"/>
        <stop offset="0.444662" stop-color="#FB8A2E"/>
        <stop offset="0.71474" stop-color="#E2425C"/>
        <stop offset="1" stop-color="#E2425C" stop-opacity="0"/>
        </radialGradient>
        <radialGradient id="paint2_radial_363_2100" cx="0" cy="0" r="1" gradientUnits="userSpaceOnUse" gradientTransform="translate(0.500002 3) rotate(-8.1301) scale(38.8909 8.31836)">
        <stop offset="0.156701" stop-color="#406ADC"/>
        <stop offset="0.467799" stop-color="#6A45BE"/>
        <stop offset="1" stop-color="#6A45BE" stop-opacity="0"/>
        </radialGradient>
        </defs>
    </symbol>
    <symbol id="snapshat" viewBox="0 0 32 32" fill="none">    
        <circle cx="16" cy="16" r="14" fill="#FFFA37"/>
        <path fill-rule="evenodd" clip-rule="evenodd" d="M21.0255 8.18551C20.0601 6.96879 18.4673 6 16.0118 6C13.9091 6.02071 9.70378 7.18445 9.70378 11.6738C9.70378 12.3294 9.75568 13.2075 9.80103 13.8541C9.74758 13.8386 9.68188 13.8095 9.57775 13.7596L9.56328 13.7527C9.37915 13.6643 9.09918 13.5298 8.7098 13.5298C8.31645 13.5298 7.93611 13.6839 7.65375 13.9124C7.37309 14.1394 7.13333 14.4885 7.13333 14.9105C7.13333 15.4384 7.43041 15.7888 7.77778 16.0135C8.08632 16.2131 8.47538 16.3406 8.78337 16.4415L8.81382 16.4514C9.14349 16.5596 9.3851 16.642 9.55169 16.7458C9.68136 16.8267 9.70104 16.8778 9.70348 16.9264C9.70179 16.9333 9.69782 16.9482 9.68919 16.9724C9.67141 17.0224 9.64184 17.0899 9.59862 17.1743C9.5124 17.3427 9.38667 17.5498 9.23711 17.7706C8.93539 18.2161 8.56717 18.673 8.29212 18.9376C8.02082 19.1986 7.57562 19.5229 7.11016 19.7811C6.87933 19.9091 6.6536 20.0152 6.45167 20.0881C6.24322 20.1633 6.09047 20.192 5.99608 20.192C5.92136 20.192 5.85669 20.2073 5.82847 20.2144C5.7888 20.2243 5.74774 20.2374 5.70713 20.2527C5.62657 20.2829 5.53056 20.3283 5.43546 20.3923C5.25377 20.5146 5 20.7612 5 21.1502C5 21.3532 5.04766 21.5251 5.13005 21.6742C5.20217 21.8047 5.29487 21.9038 5.34823 21.9608L5.35615 21.9692L5.37091 21.9851C5.66435 22.3008 6.15008 22.5205 6.62162 22.6712C7.02679 22.8007 7.4798 22.8972 7.92122 22.9551C7.92745 22.9836 7.93397 23.0142 7.9411 23.0478L7.9434 23.0587C7.97119 23.1897 8.008 23.3633 8.06221 23.5234C8.11336 23.6744 8.20599 23.8977 8.39564 24.0568C8.63717 24.2593 8.95308 24.2798 9.1592 24.279C9.38047 24.2781 9.63881 24.2469 9.88394 24.2174L9.90481 24.2149C10.2497 24.1733 10.6106 24.1304 10.9843 24.1304C11.6663 24.1304 12.1035 24.4153 12.7894 24.8837L12.794 24.8869C13.0316 25.0492 13.2976 25.2308 13.6 25.4095C14.6122 26.0076 15.4346 26.0025 15.9007 25.9995C15.9315 25.9993 15.9606 25.9992 15.9882 25.9992C16.0158 25.9992 16.0452 25.9993 16.0761 25.9995C16.543 26.0025 17.3873 26.0079 18.4 25.4095C18.7024 25.2308 18.9684 25.0492 19.2059 24.8869L19.2106 24.8837C19.8965 24.4153 20.3337 24.1304 21.0157 24.1304C21.3894 24.1304 21.7503 24.1733 22.0952 24.2149L22.1161 24.2174C22.3612 24.2469 22.6195 24.2781 22.8408 24.279C23.0469 24.2798 23.3628 24.2593 23.6044 24.0568C23.794 23.8977 23.8866 23.6744 23.9378 23.5234C23.992 23.3634 24.0288 23.1898 24.0566 23.0587L24.0589 23.0478C24.066 23.0142 24.0725 22.9836 24.0788 22.9551C24.5202 22.8972 24.9732 22.8007 25.3784 22.6712C25.8499 22.5205 26.3357 22.3007 26.6291 21.985L26.6439 21.9692L26.6517 21.9608C26.7051 21.9038 26.7978 21.8047 26.8699 21.6742C26.9523 21.5251 27 21.3532 27 21.1502C27 20.7612 26.7462 20.5146 26.5645 20.3923C26.4694 20.3283 26.3734 20.2829 26.2929 20.2527C26.2523 20.2374 26.2112 20.2243 26.1715 20.2144C26.1433 20.2073 26.0786 20.192 26.0039 20.192C25.9095 20.192 25.7568 20.1633 25.5483 20.0881C25.3464 20.0152 25.1207 19.9091 24.8898 19.7811C24.4244 19.5229 23.9792 19.1986 23.7079 18.9376C23.4328 18.673 23.0646 18.2161 22.7629 17.7706C22.6133 17.5498 22.4876 17.3427 22.4014 17.1743C22.3582 17.0899 22.3286 17.0224 22.3108 16.9724C22.3022 16.9482 22.2982 16.9333 22.2965 16.9264C22.299 16.8778 22.3186 16.8267 22.4483 16.7458C22.6149 16.642 22.8565 16.5596 23.1862 16.4514L23.2166 16.4415C23.5246 16.3406 23.9137 16.2131 24.2222 16.0135C24.5696 15.7888 24.8667 15.4384 24.8667 14.9105C24.8667 14.4885 24.6269 14.1394 24.3462 13.9124C24.0639 13.6839 23.6835 13.5298 23.2902 13.5298C22.9008 13.5298 22.6209 13.6643 22.4367 13.7527L22.4223 13.7596C22.3181 13.8095 22.2524 13.8386 22.199 13.8541C22.2443 13.2075 22.2962 12.3294 22.2962 11.6738C22.2962 10.7837 21.9726 9.37904 21.0255 8.18551ZM11.7832 8.77274C10.9822 9.77549 10.7077 10.9662 10.7077 11.6738C10.7077 12.3299 10.7633 13.2413 10.8102 13.8949C10.8258 14.1119 10.7813 14.365 10.5917 14.5658C10.3998 14.7691 10.1388 14.8351 9.90561 14.8351C9.56889 14.8351 9.3128 14.7119 9.14898 14.6331L9.12996 14.624C8.94718 14.5363 8.85108 14.4956 8.7098 14.4956C8.58128 14.4956 8.42437 14.5508 8.29994 14.6515C8.17382 14.7535 8.13725 14.8534 8.13725 14.9105C8.13725 15.0269 8.18018 15.1101 8.33794 15.2121C8.52427 15.3326 8.78976 15.4232 9.13779 15.5374L9.16809 15.5473C9.45712 15.642 9.81511 15.7593 10.0976 15.9354C10.4147 16.133 10.7077 16.4507 10.7077 16.9401C10.7077 17.0684 10.6722 17.1919 10.6389 17.2854C10.6028 17.3869 10.554 17.4941 10.4992 17.601C10.3896 17.8152 10.2413 18.0571 10.0783 18.2978C9.75483 18.7754 9.3437 19.2918 9.002 19.6205C8.65655 19.9528 8.13703 20.3263 7.61159 20.6178C7.34696 20.7645 7.07068 20.8961 6.80428 20.9923C6.56581 21.0783 6.3088 21.1457 6.06224 21.1563C6.0561 21.1589 6.04931 21.162 6.0422 21.1655C6.03083 21.1713 6.0202 21.1774 6.01092 21.1837L6.00618 21.187C6.00711 21.1936 6.00817 21.1985 6.00906 21.202C6.01103 21.2097 6.01337 21.2152 6.01652 21.2209C6.02619 21.2384 6.04143 21.2579 6.1031 21.324L6.11928 21.3413C6.23038 21.4609 6.50416 21.616 6.93815 21.7547C7.35148 21.8868 7.84023 21.9822 8.30201 22.026C8.53305 22.0479 8.66621 22.1923 8.72257 22.2701C8.78059 22.3501 8.81377 22.4347 8.83316 22.4908C8.87067 22.5994 8.899 22.7332 8.92135 22.8387L8.92474 22.8547C8.95525 22.9985 8.98194 23.1215 9.01675 23.2242C9.02905 23.2606 9.0404 23.2882 9.05017 23.3085C9.0722 23.3111 9.10599 23.3135 9.15493 23.3133C9.36726 23.3124 9.57984 23.2808 9.79022 23.2554C10.1268 23.2148 10.5433 23.1646 10.9843 23.1646C12.0071 23.1646 12.682 23.6258 13.334 24.0713L13.3706 24.0963C13.6118 24.261 13.8536 24.4259 14.1255 24.5866C14.8917 25.0394 15.4747 25.0361 15.9007 25.0337C15.9306 25.0336 15.9598 25.0334 15.9882 25.0334C16.0164 25.0334 16.0454 25.0336 16.0753 25.0337C16.5059 25.036 17.1085 25.0393 17.8745 24.5866C18.1464 24.4259 18.3882 24.261 18.6294 24.0963L18.666 24.0713C19.318 23.6258 19.9929 23.1646 21.0157 23.1646C21.4567 23.1646 21.8732 23.2148 22.2098 23.2554L22.2199 23.2566C22.4921 23.2894 22.6913 23.3126 22.8451 23.3133C22.894 23.3135 22.9278 23.3111 22.9498 23.3085C22.9596 23.2882 22.9709 23.2606 22.9833 23.2242C23.0181 23.1215 23.0447 22.9985 23.0753 22.8547L23.0787 22.8387C23.101 22.7331 23.1293 22.5994 23.1668 22.4908C23.1862 22.4347 23.2194 22.3501 23.2774 22.2701C23.3338 22.1923 23.467 22.0479 23.698 22.026C24.1598 21.9822 24.6485 21.8868 25.0618 21.7547C25.4958 21.616 25.7696 21.4609 25.8807 21.3414L25.8969 21.324C25.9585 21.2579 25.9738 21.2384 25.9835 21.2209C25.9866 21.2152 25.989 21.2097 25.9909 21.202C25.9918 21.1985 25.9929 21.1936 25.9938 21.187L25.9891 21.1837C25.9798 21.1774 25.9692 21.1713 25.9578 21.1655C25.9507 21.1619 25.9439 21.1589 25.9378 21.1563C25.6912 21.1457 25.4342 21.0783 25.1957 20.9923C24.9293 20.8961 24.653 20.7645 24.3884 20.6178C23.863 20.3263 23.3435 19.9528 22.998 19.6205C22.6563 19.2918 22.2452 18.7754 21.9217 18.2978C21.7587 18.0571 21.6104 17.8152 21.5008 17.601C21.446 17.4941 21.3972 17.3869 21.3611 17.2854C21.3278 17.1919 21.2923 17.0684 21.2923 16.9401C21.2923 16.4507 21.5853 16.133 21.9024 15.9354C22.1849 15.7593 22.5429 15.642 22.8319 15.5473L22.8622 15.5374C23.2102 15.4232 23.4757 15.3326 23.6621 15.2121C23.8198 15.1101 23.8627 15.0269 23.8627 14.9105C23.8627 14.8534 23.8262 14.7535 23.7001 14.6515C23.5756 14.5508 23.4187 14.4956 23.2902 14.4956C23.1489 14.4956 23.0528 14.5363 22.87 14.624L22.851 14.6331C22.6872 14.7119 22.4311 14.8351 22.0944 14.8351C21.8612 14.8351 21.6002 14.7691 21.4083 14.5658C21.2187 14.365 21.1742 14.1119 21.1898 13.8949C21.2367 13.2413 21.2923 12.3299 21.2923 11.6738C21.2923 10.9643 21.0227 9.77352 20.2275 8.77149C19.4508 7.79264 18.1523 6.96575 16.0118 6.96575C13.871 6.96575 12.566 7.79288 11.7832 8.77274Z" fill="black"/>
        <path fill-rule="evenodd" clip-rule="evenodd" d="M11.7833 8.77281C10.9822 9.77556 10.7078 10.9662 10.7078 11.6738C10.7078 12.3299 10.7633 13.2414 10.8102 13.895C10.8258 14.112 10.7813 14.365 10.5917 14.5659C10.3999 14.7692 10.1388 14.8352 9.90565 14.8352C9.56894 14.8352 9.31285 14.712 9.14903 14.6332L9.13001 14.624C8.94723 14.5364 8.85113 14.4956 8.70985 14.4956C8.58133 14.4956 8.42442 14.5509 8.29999 14.6515C8.17387 14.7536 8.1373 14.8535 8.1373 14.9106C8.1373 15.027 8.18023 15.1101 8.33799 15.2122C8.52432 15.3327 8.78981 15.4233 9.13784 15.5374L9.16814 15.5474C9.45717 15.6421 9.81516 15.7593 10.0977 15.9354C10.4148 16.1331 10.7078 16.4508 10.7078 16.9402C10.7078 17.0685 10.6723 17.192 10.639 17.2855C10.6028 17.387 10.554 17.4942 10.4993 17.6011C10.3896 17.8153 10.2413 18.0572 10.0783 18.2979C9.75488 18.7754 9.34375 19.2918 9.00205 19.6206C8.6566 19.9529 8.13708 20.3264 7.61164 20.6178C7.34701 20.7646 7.07073 20.8962 6.80433 20.9923C6.56586 21.0784 6.30884 21.1458 6.06229 21.1563C6.05615 21.1589 6.04936 21.162 6.04224 21.1656C6.03088 21.1713 6.02025 21.1775 6.01097 21.1837L6.00623 21.187C6.00716 21.1937 6.00822 21.1986 6.00911 21.2021C6.01108 21.2098 6.01342 21.2153 6.01657 21.221C6.02624 21.2385 6.04148 21.258 6.10315 21.3241L6.11933 21.3414C6.23043 21.4609 6.50421 21.616 6.9382 21.7548C7.35152 21.8869 7.84028 21.9823 8.30206 22.0261C8.5331 22.048 8.66626 22.1924 8.72262 22.2701C8.78064 22.3502 8.81382 22.4348 8.83321 22.4909C8.87072 22.5995 8.89905 22.7332 8.9214 22.8387L8.92479 22.8548C8.9553 22.9986 8.98199 23.1215 9.0168 23.2243C9.0291 23.2606 9.04045 23.2883 9.05022 23.3086C9.07225 23.3111 9.10604 23.3135 9.15498 23.3133C9.36731 23.3125 9.57989 23.2808 9.79027 23.2555C10.1268 23.2149 10.5434 23.1647 10.9844 23.1647C12.0071 23.1647 12.682 23.6259 13.334 24.0713L13.3706 24.0963C13.6119 24.2611 13.8536 24.426 14.1255 24.5867C14.8918 25.0395 15.4747 25.0362 15.9007 25.0338C15.9307 25.0336 15.9599 25.0335 15.9883 25.0335C16.0165 25.0335 16.0455 25.0336 16.0753 25.0338C16.506 25.0361 17.1085 25.0394 17.8746 24.5867C18.1465 24.426 18.3882 24.2611 18.6295 24.0963L18.6661 24.0713C19.318 23.6259 19.993 23.1647 21.0157 23.1647C21.4567 23.1647 21.8733 23.2149 22.2098 23.2555L22.22 23.2567C22.4922 23.2895 22.6913 23.3127 22.8451 23.3133C22.8941 23.3135 22.9278 23.3111 22.9499 23.3086C22.9596 23.2883 22.971 23.2606 22.9833 23.2243C23.0181 23.1215 23.0448 22.9986 23.0753 22.8548L23.0787 22.8387C23.1011 22.7332 23.1294 22.5995 23.1669 22.4909C23.1863 22.4347 23.2195 22.3502 23.2775 22.2701C23.3338 22.1923 23.467 22.048 23.698 22.0261C24.1598 21.9823 24.6486 21.8869 25.0619 21.7548C25.4959 21.616 25.7697 21.461 25.8808 21.3414L25.8969 21.3241C25.9586 21.258 25.9739 21.2385 25.9835 21.221C25.9867 21.2153 25.989 21.2098 25.991 21.2021C25.9919 21.1986 25.9929 21.1937 25.9939 21.187L25.9891 21.1837C25.9799 21.1775 25.9692 21.1713 25.9579 21.1656C25.9507 21.162 25.944 21.1589 25.9378 21.1563C25.6913 21.1458 25.4342 21.0784 25.1958 20.9923C24.9294 20.8962 24.6531 20.7646 24.3885 20.6178C23.863 20.3264 23.3435 19.9529 22.998 19.6206C22.6563 19.2918 22.2452 18.7754 21.9218 18.2979C21.7588 18.0572 21.6105 17.8153 21.5008 17.6011C21.4461 17.4942 21.3973 17.387 21.3611 17.2855C21.3278 17.192 21.2923 17.0685 21.2923 16.9402C21.2923 16.4508 21.5853 16.1331 21.9024 15.9354C22.1849 15.7593 22.5429 15.6421 22.832 15.5474L22.8623 15.5374C23.2103 15.4233 23.4758 15.3327 23.6621 15.2122C23.8199 15.1101 23.8628 15.027 23.8628 14.9106C23.8628 14.8535 23.8262 14.7536 23.7001 14.6515C23.5757 14.5509 23.4188 14.4956 23.2902 14.4956C23.149 14.4956 23.0529 14.5364 22.8701 14.624L22.8511 14.6332C22.6872 14.712 22.4312 14.8352 22.0944 14.8352C21.8613 14.8352 21.6002 14.7692 21.4084 14.5659C21.2188 14.365 21.1743 14.112 21.1899 13.895C21.2368 13.2414 21.2923 12.3299 21.2923 11.6738C21.2923 10.9644 21.0227 9.7736 20.2276 8.77157C19.4509 7.79271 18.1524 6.96582 16.0118 6.96582C13.871 6.96582 12.5661 7.79296 11.7833 8.77281Z" fill="white"/>
    </symbol>
    <symbol id="twitter" viewBox="0 0 32 32" fill="none">    
        <path d="M11.7887 28C8.55374 28 5.53817 27.0591 3 25.4356C5.15499 25.5751 8.95807 25.2411 11.3236 22.9848C7.76508 22.8215 6.16026 20.0923 5.95094 18.926C6.25329 19.0426 7.6953 19.1826 8.50934 18.856C4.4159 17.8296 3.78793 14.2373 3.92748 13.141C4.695 13.6775 5.99745 13.8641 6.50913 13.8174C2.69479 11.0882 4.06703 6.98276 4.74151 6.09635C7.47882 9.88867 11.5812 12.0186 16.6564 12.137C16.5607 11.7174 16.5102 11.2804 16.5102 10.8316C16.5102 7.61092 19.1134 5 22.3247 5C24.0025 5 25.5144 5.71275 26.5757 6.85284C27.6969 6.59011 29.3843 5.97507 30.2092 5.4432C29.7934 6.93611 28.4989 8.18149 27.7159 8.64308C27.7095 8.62731 27.7224 8.65878 27.7159 8.64308C28.4037 8.53904 30.2648 8.18137 31 7.68256C30.6364 8.52125 29.264 9.91573 28.1377 10.6964C28.3473 19.9381 21.2765 28 11.7887 28Z" fill="#47ACDF"/>
    </symbol>
     <symbol id="whatsapp" viewBox="0 0 32 32" fill="none">    
        <path fill-rule="evenodd" clip-rule="evenodd" d="M16 31C23.732 31 30 24.732 30 17C30 9.26801 23.732 3 16 3C8.26801 3 2 9.26801 2 17C2 19.5109 2.661 21.8674 3.81847 23.905L2 31L9.31486 29.3038C11.3014 30.3854 13.5789 31 16 31ZM16 28.8462C22.5425 28.8462 27.8462 23.5425 27.8462 17C27.8462 10.4576 22.5425 5.15385 16 5.15385C9.45755 5.15385 4.15385 10.4576 4.15385 17C4.15385 19.5261 4.9445 21.8675 6.29184 23.7902L5.23077 27.7692L9.27993 26.7569C11.1894 28.0746 13.5046 28.8462 16 28.8462Z" fill="#BFC8D0"/>
        <path d="M28 16C28 22.6274 22.6274 28 16 28C13.4722 28 11.1269 27.2184 9.19266 25.8837L5.09091 26.9091L6.16576 22.8784C4.80092 20.9307 4 18.5589 4 16C4 9.37258 9.37258 4 16 4C22.6274 4 28 9.37258 28 16Z" fill="url(#paint0_linear_363_2155)"/>
        <path fill-rule="evenodd" clip-rule="evenodd" d="M16 30C23.732 30 30 23.732 30 16C30 8.26801 23.732 2 16 2C8.26801 2 2 8.26801 2 16C2 18.5109 2.661 20.8674 3.81847 22.905L2 30L9.31486 28.3038C11.3014 29.3854 13.5789 30 16 30ZM16 27.8462C22.5425 27.8462 27.8462 22.5425 27.8462 16C27.8462 9.45755 22.5425 4.15385 16 4.15385C9.45755 4.15385 4.15385 9.45755 4.15385 16C4.15385 18.5261 4.9445 20.8675 6.29184 22.7902L5.23077 26.7692L9.27993 25.7569C11.1894 27.0746 13.5046 27.8462 16 27.8462Z" fill="white"/>
        <path d="M12.5 9.49989C12.1672 8.83131 11.6565 8.8905 11.1407 8.8905C10.2188 8.8905 8.78125 9.99478 8.78125 12.05C8.78125 13.7343 9.52345 15.578 12.0244 18.3361C14.438 20.9979 17.6094 22.3748 20.2422 22.3279C22.875 22.2811 23.4167 20.0154 23.4167 19.2503C23.4167 18.9112 23.2062 18.742 23.0613 18.696C22.1641 18.2654 20.5093 17.4631 20.1328 17.3124C19.7563 17.1617 19.5597 17.3656 19.4375 17.4765C19.0961 17.8018 18.4193 18.7608 18.1875 18.9765C17.9558 19.1922 17.6103 19.083 17.4665 19.0015C16.9374 18.7892 15.5029 18.1511 14.3595 17.0426C12.9453 15.6718 12.8623 15.2001 12.5959 14.7803C12.3828 14.4444 12.5392 14.2384 12.6172 14.1483C12.9219 13.7968 13.3426 13.254 13.5313 12.9843C13.7199 12.7145 13.5702 12.305 13.4803 12.05C13.0938 10.953 12.7663 10.0347 12.5 9.49989Z" fill="white"/>
        <defs>
        <linearGradient id="paint0_linear_363_2155" x1="26.5" y1="7" x2="4" y2="28" gradientUnits="userSpaceOnUse">
        <stop stop-color="#5BD066"/>
        <stop offset="1" stop-color="#27B43E"/>
        </linearGradient>
        </defs>
    </symbol>
    <symbol id="tiktok" viewBox="0 0 24 24" fill="none">    
        <path d="M6.33809 14.8444C6.4553 13.8739 6.8533 13.3306 7.60332 12.7736C8.67646 12.0193 10.017 12.446 10.017 12.446V9.91462C10.3429 9.90629 10.6689 9.92561 10.9912 9.97235V13.23C10.9912 13.23 9.65112 12.8033 8.57798 13.558C7.82837 14.1146 7.42955 14.6583 7.31275 15.6287C7.30909 16.1557 7.40798 16.8445 7.86337 17.4401C7.75077 17.3824 7.63601 17.3166 7.51908 17.2427C6.51593 16.5691 6.33321 15.5585 6.33809 14.8444ZM16.5262 5.23411C15.788 4.42517 15.5089 3.60842 15.4079 3.03467H16.3366C16.3366 3.03467 16.1514 4.53906 17.5009 6.01849L17.5196 6.03838C17.1559 5.8096 16.8224 5.53956 16.5262 5.23411ZM20.9999 7.52756V10.7197C20.9999 10.7197 19.8149 10.6733 18.9379 10.4501C17.7133 10.1381 16.9263 9.65953 16.9263 9.65953C16.9263 9.65953 16.3826 9.31824 16.3386 9.29445V15.8862C16.3386 16.2532 16.2381 17.1698 15.9317 17.9343C15.5316 18.9343 14.9143 19.5908 14.8007 19.725C14.8007 19.725 14.0499 20.6123 12.7253 21.2098C11.5313 21.7489 10.4829 21.7352 10.1696 21.7489C10.1696 21.7489 8.35741 21.8207 6.72674 20.7609C6.37411 20.5273 6.04496 20.2628 5.74353 19.9707L5.75167 19.9765C7.38275 21.0363 9.19452 20.9645 9.19452 20.9645C9.50828 20.9509 10.5566 20.9645 11.7502 20.4255C13.0736 19.8279 13.8257 18.9406 13.8257 18.9406C13.938 18.8064 14.5582 18.15 14.9566 17.1495C15.2622 16.3854 15.3636 15.4684 15.3636 15.1014V8.51047C15.4075 8.53465 15.9508 8.87594 15.9508 8.87594C15.9508 8.87594 16.7383 9.35491 17.9628 9.66655C18.8402 9.88966 20.0248 9.93607 20.0248 9.93607V7.43473C20.4302 7.52561 20.7757 7.55018 20.9999 7.52756Z" fill="#EE1D52"/>
        <path d="M20.0253 7.43473V9.93529C20.0253 9.93529 18.8406 9.88888 17.9632 9.66577C16.7387 9.35374 15.9512 8.87516 15.9512 8.87516C15.9512 8.87516 15.408 8.53387 15.364 8.50969V15.1022C15.364 15.4692 15.2635 16.3862 14.957 17.1503C14.557 18.1507 13.9397 18.8072 13.8261 18.9414C13.8261 18.9414 13.0749 19.8287 11.7506 20.4263C10.557 20.9653 9.50871 20.9516 9.19495 20.9653C9.19495 20.9653 7.38318 21.0371 5.7521 19.9773L5.74396 19.9715C5.57175 19.8047 5.40965 19.6286 5.25846 19.4441C4.73796 18.8095 4.41891 18.0591 4.33874 17.845C4.3386 17.844 4.3386 17.8431 4.33874 17.8422C4.20973 17.4701 3.9387 16.5765 3.97573 15.711C4.04125 14.184 4.57844 13.2467 4.72046 13.0119C5.09661 12.3716 5.58584 11.7987 6.16638 11.3188C6.67867 10.9046 7.25933 10.5751 7.88455 10.3437C8.56043 10.072 9.28418 9.92637 10.017 9.91462V12.446C10.017 12.446 8.67649 12.0208 7.60375 12.7736C6.85373 13.3306 6.45573 13.8739 6.33852 14.8444C6.33364 15.5585 6.51636 16.5691 7.5187 17.2431C7.63563 17.3172 7.75039 17.383 7.86298 17.4405C8.03809 17.6681 8.25122 17.8664 8.49376 18.0275C9.4729 18.6473 10.2933 18.6906 11.3425 18.288C12.042 18.0189 12.5686 17.4124 12.8128 16.7404C12.9662 16.3207 12.9642 15.8983 12.9642 15.4614V3.03467H15.4059C15.5068 3.60842 15.786 4.42517 16.5242 5.23411C16.8204 5.53956 17.1539 5.8096 17.5176 6.03838C17.625 6.14954 18.1744 6.69911 18.8797 7.0365C19.2444 7.21089 19.6288 7.34452 20.0253 7.43473Z" fill="black"/>
        <path d="M3.36694 17.0679V17.0698L3.42753 17.234C3.42057 17.2149 3.39806 17.1568 3.36694 17.0679Z" fill="#69C9D0"/>
        <path d="M7.88461 10.344C7.25939 10.5754 6.67873 10.9049 6.16644 11.3191C5.58572 11.8001 5.09661 12.3742 4.72093 13.0158C4.57891 13.2498 4.04172 14.1878 3.9762 15.7149C3.93917 16.5804 4.2102 17.4739 4.33921 17.846C4.33907 17.847 4.33907 17.8479 4.33921 17.8488C4.4206 18.061 4.73843 18.8114 5.25893 19.4479C5.41012 19.6325 5.57222 19.8085 5.74443 19.9753C5.19268 19.6095 4.7006 19.1674 4.28427 18.6632C3.76825 18.034 3.45001 17.2914 3.36699 17.0722C3.36689 17.0706 3.36689 17.0691 3.36699 17.0675V17.0648C3.23758 16.6931 2.96573 15.7991 3.00358 14.9324C3.0691 13.4054 3.60628 12.4681 3.74831 12.2333C4.12388 11.5917 4.613 11.0176 5.19382 10.5367C5.706 10.1223 6.28669 9.79279 6.91199 9.56155C7.30202 9.40646 7.70833 9.29203 8.1239 9.22027C8.75019 9.11549 9.38984 9.1064 10.0191 9.19336V9.91493C9.2856 9.92643 8.56113 10.0721 7.88461 10.344Z" fill="#69C9D0"/>
        <path d="M15.408 3.03476H12.9662V15.4619C12.9662 15.8987 12.9662 16.32 12.8148 16.7408C12.5682 17.4125 12.0437 18.019 11.3445 18.2881C10.295 18.6922 9.47454 18.6474 8.49581 18.0276C8.25285 17.8673 8.03917 17.6696 7.8634 17.4425C8.69726 17.8688 9.44361 17.8614 10.3682 17.5057C11.067 17.2366 11.5923 16.6301 11.8381 15.958C11.992 15.5383 11.9899 15.1159 11.9899 14.6795V2.25H15.3616C15.3616 2.25 15.3237 2.55891 15.408 3.03476ZM20.0253 6.74328V7.43483C19.6295 7.34447 19.2458 7.21085 18.8817 7.0366C18.1765 6.69921 17.6271 6.14964 17.5197 6.03848C17.6443 6.11693 17.7737 6.1883 17.9071 6.25222C18.7645 6.66255 19.609 6.78502 20.0253 6.74328Z" fill="#69C9D0"/>
    </symbol>
    <symbol id="linkedin" viewBox="0 0 32 32" fill="none">    
        <rect x="2" y="2" width="28" height="28" rx="14" fill="#1275B1"/>
        <path d="M12.6186 9.69215C12.6186 10.6267 11.8085 11.3843 10.8093 11.3843C9.81004 11.3843 9 10.6267 9 9.69215C9 8.7576 9.81004 8 10.8093 8C11.8085 8 12.6186 8.7576 12.6186 9.69215Z" fill="white"/>
        <path d="M9.24742 12.6281H12.3402V22H9.24742V12.6281Z" fill="white"/>
        <path d="M17.3196 12.6281H14.2268V22H17.3196C17.3196 22 17.3196 19.0496 17.3196 17.2049C17.3196 16.0976 17.6977 14.9855 19.2062 14.9855C20.911 14.9855 20.9008 16.4345 20.8928 17.5571C20.8824 19.0244 20.9072 20.5219 20.9072 22H24V17.0537C23.9738 13.8954 23.1508 12.4401 20.4433 12.4401C18.8354 12.4401 17.8387 13.1701 17.3196 13.8305V12.6281Z" fill="white"/>
    </symbol>
</svg>