<svg xmlns="http://www.w3.org/2000/svg">
    <symbol id="translate" viewBox="0 0 25 23" fill="">    
        <path d="M15.29 18.4529C15.1623 18.4516 15.0369 18.421 14.9257 18.3638C14.8145 18.3066 14.7211 18.2247 14.6542 18.1259C14.5873 18.027 14.549 17.9143 14.5431 17.7984C14.5371 17.6825 14.5636 17.5671 14.62 17.463L16.76 13.5851C16.8238 13.4735 16.9199 13.3799 17.038 13.3142C17.156 13.2486 17.2916 13.2135 17.43 13.2128C17.5697 13.2135 17.7064 13.2495 17.8248 13.3169C17.9432 13.3843 18.0385 13.4803 18.1 13.5942L20.244 17.4721C20.3249 17.6337 20.3335 17.8176 20.2679 17.9848C20.2024 18.1521 20.0679 18.2897 19.8928 18.3687C19.7176 18.4476 19.5156 18.4617 19.3293 18.4079C19.1429 18.3542 18.9869 18.2368 18.894 18.0805L17.43 15.4196L15.97 18.0805C15.9039 18.1923 15.8058 18.2858 15.6862 18.3513C15.5666 18.4168 15.4297 18.4519 15.29 18.4529Z" fill=""/>
        <path d="M19.1799 17.7628H15.6599C15.4614 17.7616 15.2714 17.6894 15.131 17.5619C14.9907 17.4345 14.9112 17.2619 14.9099 17.0816C14.9112 16.9014 14.9907 16.7288 15.131 16.6013C15.2714 16.4738 15.4614 16.4017 15.6599 16.4005H19.1799C19.3788 16.4005 19.5696 16.4723 19.7102 16.6C19.8509 16.7277 19.9299 16.901 19.9299 17.0816C19.9299 17.2623 19.8509 17.4355 19.7102 17.5633C19.5696 17.691 19.3788 17.7628 19.1799 17.7628Z" fill=""/>
        <path d="M17.4201 21.477C16.267 21.477 15.1399 21.1665 14.1811 20.5847C13.2224 20.0029 12.4751 19.176 12.0339 18.2086C11.5926 17.2411 11.4772 16.1765 11.7021 15.1495C11.9271 14.1224 12.4823 13.179 13.2977 12.4386C14.113 11.6981 15.1518 11.1938 16.2827 10.9896C17.4136 10.7853 18.5858 10.8901 19.6511 11.2908C20.7164 11.6916 21.627 12.3702 22.2676 13.2409C22.9082 14.1116 23.2501 15.1352 23.2501 16.1824C23.2485 17.5862 22.6338 18.932 21.5408 19.9247C20.4478 20.9173 18.9658 21.4756 17.4201 21.477ZM17.4201 12.2591C16.5637 12.2591 15.7265 12.4898 15.0145 12.9219C14.3024 13.354 13.7474 13.9681 13.4197 14.6866C13.092 15.4052 13.0062 16.1959 13.1733 16.9587C13.3404 17.7215 13.7528 18.4221 14.3583 18.9721C14.9639 19.522 15.7354 19.8966 16.5753 20.0483C17.4153 20.2 18.2859 20.1221 19.0771 19.8245C19.8683 19.5269 20.5446 19.0229 21.0204 18.3762C21.4961 17.7295 21.7501 16.9692 21.7501 16.1915C21.7496 15.1487 21.2932 14.1488 20.4813 13.4114C19.6694 12.6741 18.5683 12.2596 17.4201 12.2591Z" fill=""/>
        <path d="M5.36006 12.3501C4.40392 12.3991 3.46539 12.1019 2.75006 11.5237C2.39812 11.175 2.12798 10.7649 1.95607 10.3183C1.78415 9.87183 1.71406 9.39822 1.75006 8.92632V5.36632C1.69082 4.9037 1.74758 4.4349 1.91609 3.99502C2.0846 3.55515 2.3605 3.15559 2.72313 2.82626C3.08576 2.49693 3.52573 2.24637 4.01009 2.09333C4.49445 1.94029 5.01065 1.88875 5.52006 1.94255H9.44006C9.95979 1.90851 10.4817 1.97154 10.9736 2.12773C11.4655 2.28392 11.9169 2.52997 12.3001 2.85071C12.6328 3.19508 12.885 3.59724 13.0414 4.03278C13.1978 4.46833 13.2552 4.92819 13.2101 5.38449V8.92632C13.2583 9.38978 13.2006 9.8573 13.0405 10.2996C12.8805 10.7418 12.6216 11.1493 12.2801 11.4964C11.8935 11.8062 11.4413 12.041 10.9512 12.1862C10.4611 12.3314 9.94341 12.3841 9.43006 12.341H5.53006C5.47374 12.3481 5.4169 12.3511 5.36006 12.3501ZM5.52006 3.31387C3.91006 3.31387 3.25006 3.91326 3.25006 5.3754V8.9354C3.21871 9.22386 3.25026 9.5151 3.34292 9.79247C3.43558 10.0698 3.58752 10.3279 3.79006 10.5519C4.27146 10.8948 4.8823 11.0514 5.49006 10.9879H9.43006C9.74355 11.0242 10.0619 11.0028 10.3661 10.9248C10.6702 10.8467 10.9539 10.7137 11.2001 10.5338C11.3943 10.3119 11.5377 10.057 11.6219 9.78409C11.706 9.51115 11.7292 9.22568 11.6901 8.94449V5.36632C11.7277 5.09007 11.7047 4.80976 11.6223 4.54164C11.5399 4.27352 11.3998 4.0229 11.2101 3.80428C10.9634 3.62034 10.6792 3.48235 10.3738 3.39821C10.0684 3.31406 9.74768 3.2854 9.43006 3.31387H5.52006Z" fill=""/>
        <path d="M9.49994 6.81024H5.43994C5.24143 6.80905 5.05143 6.73691 4.91106 6.60943C4.77069 6.48195 4.69125 6.3094 4.68994 6.12912C4.69125 5.94884 4.77069 5.77629 4.91106 5.64881C5.05143 5.52133 5.24143 5.44919 5.43994 5.448H9.49994C9.69885 5.448 9.88962 5.51976 10.0303 5.64749C10.1709 5.77523 10.2499 5.94848 10.2499 6.12912C10.2499 6.30977 10.1709 6.48301 10.0303 6.61075C9.88962 6.73848 9.69885 6.81024 9.49994 6.81024Z" fill=""/>
        <path d="M7.47998 6.81024C7.28147 6.80905 7.09147 6.73691 6.9511 6.60943C6.81073 6.48195 6.73129 6.3094 6.72998 6.12912V5.51157C6.73129 5.33129 6.81073 5.15873 6.9511 5.03126C7.09147 4.90378 7.28147 4.83163 7.47998 4.83044C7.67849 4.83163 7.86849 4.90378 8.00886 5.03126C8.14923 5.15873 8.22867 5.33129 8.22998 5.51157V6.12912C8.22867 6.3094 8.14923 6.48195 8.00886 6.60943C7.86849 6.73691 7.67849 6.80905 7.47998 6.81024Z" fill=""/>
        <path d="M5.43994 9.67997C5.24103 9.67997 5.05026 9.6082 4.90961 9.48047C4.76896 9.35273 4.68994 9.17949 4.68994 8.99884C4.68994 8.8182 4.76896 8.64495 4.90961 8.51722C5.05026 8.38948 5.24103 8.31772 5.43994 8.31772C5.74989 8.31066 6.05527 8.24819 6.33863 8.1339C6.62199 8.01962 6.87777 7.85574 7.09137 7.65164C7.30496 7.44754 7.47218 7.20722 7.58347 6.94441C7.69475 6.6816 7.74792 6.40145 7.73994 6.11997C7.73994 5.93932 7.81896 5.76607 7.95961 5.63834C8.10026 5.5106 8.29103 5.43884 8.48994 5.43884C8.68885 5.43884 8.87962 5.5106 9.02027 5.63834C9.16092 5.76607 9.23994 5.93932 9.23994 6.11997C9.25491 7.04944 8.86319 7.94633 8.15075 8.61377C7.43831 9.28121 6.46338 9.66467 5.43994 9.67997Z" fill=""/>
        <path d="M9.50992 9.68008C9.02864 9.66957 8.55668 9.55741 8.13142 9.35248C7.70617 9.14756 7.33931 8.85551 7.05992 8.49947C6.94057 8.35495 6.88932 8.1733 6.91745 7.99447C6.94558 7.81564 7.05079 7.65428 7.20992 7.5459C7.36905 7.43751 7.56907 7.39097 7.76598 7.41652C7.96289 7.44206 8.14057 7.5376 8.25992 7.68212C8.39733 7.87166 8.58227 8.02892 8.79955 8.14101C9.01683 8.25309 9.26028 8.3168 9.50992 8.32692C9.70842 8.32811 9.89843 8.40025 10.0388 8.52773C10.1792 8.65521 10.2586 8.82776 10.2599 9.00804C10.2581 9.18733 10.1781 9.35867 10.0376 9.4846C9.89706 9.61052 9.70734 9.68081 9.50992 9.68008Z" fill=""/>
        <path d="M9.5 21.4771C7.44563 21.474 5.47638 20.7314 4.02372 19.4122C2.57106 18.0929 1.75344 16.3045 1.75 14.4388C1.75131 14.2585 1.83075 14.086 1.97112 13.9585C2.11149 13.831 2.30149 13.7589 2.5 13.7577C2.69851 13.7589 2.88851 13.831 3.02888 13.9585C3.16925 14.086 3.24869 14.2585 3.25 14.4388C3.25119 15.7201 3.72884 16.9634 4.60552 17.9673C5.4822 18.9711 6.70652 19.6767 8.08 19.9695L7.81 19.5609C7.75944 19.4839 7.72606 19.3987 7.71176 19.3101C7.69747 19.2214 7.70254 19.1311 7.72668 19.0442C7.75082 18.9574 7.79357 18.8757 7.85248 18.8038C7.91138 18.732 7.9853 18.6714 8.07 18.6254C8.1547 18.5795 8.24853 18.5492 8.34614 18.5362C8.44374 18.5232 8.5432 18.5279 8.63885 18.5498C8.73449 18.5717 8.82444 18.6105 8.90357 18.664C8.98269 18.7175 9.04944 18.7846 9.1 18.8616L10.15 20.4509C10.2178 20.5534 10.2545 20.6705 10.2563 20.7902C10.258 20.9098 10.2248 21.0278 10.16 21.132C10.0916 21.2359 9.99499 21.3221 9.87946 21.3825C9.76393 21.4429 9.6333 21.4755 9.5 21.4771Z" fill=""/>
        <path d="M22.4999 9.67094C22.3014 9.66975 22.1114 9.5976 21.971 9.47013C21.8306 9.34265 21.7512 9.17009 21.7499 8.98981C21.7487 7.70855 21.2711 6.46521 20.3944 5.46135C19.5177 4.45748 18.2934 3.75194 16.9199 3.4591L17.1899 3.86777C17.2405 3.9447 17.2738 4.02991 17.2881 4.11855C17.3024 4.20719 17.2974 4.29752 17.2732 4.38438C17.2491 4.47124 17.2063 4.55293 17.1474 4.62479C17.0885 4.69665 17.0146 4.75727 16.9299 4.80318C16.8452 4.8491 16.7514 4.87941 16.6538 4.8924C16.5562 4.90538 16.4567 4.90078 16.361 4.87885C16.2654 4.85692 16.1754 4.8181 16.0963 4.76461C16.0172 4.71111 15.9505 4.64398 15.8999 4.56706L14.8499 2.97777C14.7827 2.87486 14.7467 2.7576 14.7456 2.63795C14.7446 2.51829 14.7785 2.40052 14.8439 2.29665C14.9073 2.1916 15.0009 2.10407 15.1146 2.04332C15.2283 1.98257 15.358 1.95086 15.4899 1.95155C17.545 1.95371 19.5152 2.69582 20.9688 4.01518C22.4223 5.33453 23.2405 7.12348 23.2439 8.98981C23.2451 9.0791 23.2267 9.16771 23.1898 9.25048C23.1529 9.33326 23.0983 9.40853 23.029 9.47193C22.9598 9.53532 22.8773 9.58556 22.7865 9.61973C22.6956 9.6539 22.5982 9.67131 22.4999 9.67094Z" fill=""/>    
    </symbol>
    <symbol id="shoppingCart" viewBox="0 0 24 21" fill="none">    
        <path d="M9.74801 19.1048C9.74801 19.2794 9.69101 19.45 9.58422 19.5952C9.47742 19.7403 9.32563 19.8535 9.14804 19.9203C8.97045 19.9871 8.77503 20.0046 8.5865 19.9705C8.39797 19.9364 8.22479 19.8524 8.08886 19.7289C7.95294 19.6055 7.86038 19.4482 7.82287 19.277C7.78537 19.1058 7.80462 18.9283 7.87818 18.767C7.95174 18.6058 8.07632 18.4679 8.23614 18.3709C8.39597 18.2739 8.58388 18.2222 8.77611 18.2222C9.03387 18.2222 9.28108 18.3152 9.46335 18.4807C9.64562 18.6462 9.74801 18.8707 9.74801 19.1048Z" stroke="" stroke-width="1.58679" stroke-linecap="round" stroke-linejoin="round"/>
        <path d="M20.4404 19.1048C20.4404 19.2794 20.3834 19.45 20.2766 19.5952C20.1698 19.7403 20.018 19.8535 19.8404 19.9203C19.6628 19.9871 19.4674 20.0046 19.2789 19.9705C19.0903 19.9364 18.9172 19.8524 18.7812 19.7289C18.6453 19.6055 18.5528 19.4482 18.5153 19.277C18.4778 19.1058 18.497 18.9283 18.5706 18.767C18.6441 18.6058 18.7687 18.4679 18.9285 18.3709C19.0884 18.2739 19.2763 18.2222 19.4685 18.2222C19.7263 18.2222 19.9735 18.3152 20.1557 18.4807C20.338 18.6462 20.4404 18.8707 20.4404 19.1048Z" stroke="" stroke-width="1.58679" stroke-linecap="round" stroke-linejoin="round"/>
        <path d="M1 1.44897H4.88763L7.49313 13.2693C7.58188 13.6757 7.82526 14.0409 8.18063 14.3008C8.53601 14.5607 8.98074 14.6988 9.43694 14.6909H18.8855C19.3417 14.6988 19.7864 14.5607 20.1418 14.3008C20.4971 14.0409 20.7405 13.6757 20.8293 13.2693L22.3843 5.86294H5.86033" stroke="" stroke-width="1.58679" stroke-linecap="round" stroke-linejoin="round"/>
    </symbol>
    <symbol id="user" viewBox="0 0 19 20" fill="none">    
        <path d="M9.35727 13C6.1872 13 3.36807 14.5306 1.57327 16.906C1.18698 17.4172 0.993832 17.6728 1.00015 18.0183C1.00503 18.2852 1.17263 18.6219 1.38264 18.7867C1.65446 19 2.03114 19 2.7845 19H15.93C16.6834 19 17.0601 19 17.3319 18.7867C17.5419 18.6219 17.7095 18.2852 17.7144 18.0183C17.7207 17.6728 17.5276 17.4172 17.1413 16.906C15.3465 14.5306 12.5273 13 9.35727 13Z" stroke="" stroke-width="1.5" stroke-linecap="round" stroke-linejoin="round"/>
        <path d="M9.35727 10C11.8426 10 13.8573 7.98528 13.8573 5.5C13.8573 3.01472 11.8426 1 9.35727 1C6.87199 1 4.85727 3.01472 4.85727 5.5C4.85727 7.98528 6.87199 10 9.35727 10Z" stroke="" stroke-width="1.5" stroke-linecap="round" stroke-linejoin="round"/>
    </symbol>
    <symbol id="calling" viewBox="0 0 21 21" fill="none">    
        <path d="M1.49006 3.37521C1.80606 2.85021 3.55006 0.945209 4.79306 1.00121C5.16524 1.05791 5.50664 1.24079 5.76006 1.51921C6.71668 2.5268 7.54528 3.64861 8.22706 4.85921C8.47206 6.02721 7.07806 6.70121 7.50006 7.87921C7.99663 9.15342 8.75251 10.3106 9.71977 11.2773C10.687 12.2441 11.8446 12.9993 13.1191 13.4952C14.2961 13.9222 14.9701 12.5302 16.1381 12.7722C17.3488 13.4541 18.4707 14.2831 19.4781 15.2402C19.7563 15.4936 19.9389 15.8351 19.9951 16.2072C20.0411 17.5162 18.0181 19.2842 17.6241 19.5072C16.6941 20.1732 15.4801 20.1612 14.0001 19.4732C9.87406 17.7582 3.27406 11.2832 1.52406 7.00121C0.854058 5.52621 0.809058 4.30121 1.49006 3.37521Z" stroke="#212529" stroke-width="1.5" stroke-miterlimit="10" stroke-linecap="round" stroke-linejoin="round"/>
        <path d="M13.0649 1.25122C14.8622 1.45088 16.5381 2.2557 17.8176 3.53353C19.097 4.81136 19.904 6.48625 20.1059 8.28322" stroke="#212529" stroke-width="1.5" stroke-miterlimit="10" stroke-linecap="round" stroke-linejoin="round"/>
        <path d="M13.0649 4.79419C13.9306 4.96249 14.7263 5.38558 15.3499 6.00919C15.9735 6.6328 16.3966 7.42848 16.5649 8.29419" stroke="#212529" stroke-width="1.5" stroke-miterlimit="10" stroke-linecap="round" stroke-linejoin="round"/>
    </symbol>
    <symbol id="message" viewBox="0 0 24 24" fill="none">    
        <path d="M17.2681 9.06104L13.0021 12.495C12.6105 12.8026 12.127 12.9697 11.6291 12.9697C11.1312 12.9697 10.6477 12.8026 10.2561 12.495L5.9541 9.06104" stroke="#212529" stroke-width="1.5" stroke-miterlimit="10" stroke-linecap="round" stroke-linejoin="round"/>
        <path d="M6.888 3.5H16.316C16.9901 3.50738 17.6556 3.6522 18.2719 3.92558C18.8881 4.19897 19.4421 4.59519 19.9 5.09C20.3587 5.58573 20.7126 6.16896 20.9404 6.80474C21.1683 7.44053 21.2654 8.11577 21.226 8.79V15.318C21.2654 15.9922 21.1683 16.6675 20.9404 17.3033C20.7126 17.939 20.3587 18.5223 19.9 19.018C19.4426 19.5123 18.8892 19.9083 18.2737 20.1816C17.6582 20.455 16.9934 20.6001 16.32 20.608H6.888C3.968 20.616 2 18.241 2 15.322V8.794C2 5.875 3.968 3.5 6.888 3.5Z" stroke="#212529" stroke-width="1.5" stroke-miterlimit="10" stroke-linecap="round" stroke-linejoin="round"/>  
    </symbol>
</svg>