<svg width="24" height="24" viewBox="0 0 24 24" fill="none" xmlns="http://www.w3.org/2000/svg">
<path d="M3 6.23043H5M5 6.23043H21M5 6.23043V19.692C5 20.202 5.21071 20.6911 5.58579 21.0518C5.96086 21.4124 6.46957 21.615 7 21.615H17C17.5304 21.615 18.0391 21.4124 18.4142 21.0518C18.7893 20.6911 19 20.202 19 19.692V6.23043H5ZM8 6.23043V4.30735C8 3.79732 8.21071 3.30818 8.58579 2.94753C8.96086 2.58689 9.46957 2.38428 10 2.38428H14C14.5304 2.38428 15.0391 2.58689 15.4142 2.94753C15.7893 3.30818 16 3.79732 16 4.30735V6.23043" stroke="#212529" stroke-width="2" stroke-linecap="round" stroke-linejoin="round"/>
</svg>
